<svg xmlns="http://www.w3.org/2000/svg" width="142" height="90" viewBox="0 0 142 90" fill="none"><path d="M122.59 39.6011C126.74 36.6843 129.489 31.8323 129.489 26.3634C129.489 17.4166 122.253 10.1807 113.306 10.1807C104.36 10.1807 97.1237 17.4166 97.1237 26.3634C97.1237 31.8323 99.8442 36.6843 104.023 39.6011C100.461 40.8352 97.2078 42.7423 94.4593 45.2103C90.6731 41.985 86.2138 39.517 81.3337 38.0586C87.2515 34.4687 91.234 27.9339 91.234 20.5017C91.234 9.17108 82.0629 0 70.7323 0C59.4017 0 50.2306 9.19913 50.2306 20.5017C50.2306 27.9339 54.1851 34.4687 60.1309 38.0586C55.3069 39.517 50.9037 41.957 47.1455 45.1262C44.397 42.7142 41.1997 40.8352 37.694 39.6292C41.8448 36.7124 44.5933 31.8604 44.5933 26.3914C44.5933 17.4447 37.3574 10.2088 28.4107 10.2088C19.464 10.2088 12.2281 17.4447 12.2281 26.3914C12.2281 31.8604 14.9486 36.7124 19.1275 39.6292C7.99314 43.4715 0 54.0449 0 66.4693V68.3204C0 68.3764 0.0560922 68.4325 0.112184 68.4325H34.4126C34.2163 69.9751 34.1041 71.5737 34.1041 73.1723V75.0795C34.1041 83.325 40.7791 90 49.0246 90H92.4961C100.742 90 107.417 83.325 107.417 75.0795V73.1723C107.417 71.5737 107.304 69.9751 107.108 68.4325H141.633C141.689 68.4325 141.745 68.3764 141.745 68.3204V66.4693C141.689 54.0168 133.724 43.4434 122.59 39.6011ZM101.611 26.3353C101.611 19.8847 106.856 14.6401 113.306 14.6401C119.757 14.6401 125.002 19.8847 125.002 26.3353C125.002 32.7018 119.869 37.8903 113.531 38.0305C113.447 38.0305 113.39 38.0305 113.306 38.0305C113.222 38.0305 113.166 38.0305 113.082 38.0305C106.715 37.9184 101.611 32.7298 101.611 26.3353ZM54.6619 20.5017C54.6619 11.6672 61.8417 4.48738 70.6762 4.48738C79.5107 4.48738 86.6906 11.6672 86.6906 20.5017C86.6906 29.0277 79.9875 36.0112 71.6017 36.488C71.2932 36.488 70.9847 36.488 70.6762 36.488C70.3677 36.488 70.0592 36.488 69.7507 36.488C61.3649 36.0112 54.6619 29.0277 54.6619 20.5017ZM16.6313 26.3353C16.6313 19.8847 21.876 14.6401 28.3266 14.6401C34.7772 14.6401 40.0218 19.8847 40.0218 26.3353C40.0218 32.7018 34.8894 37.8903 28.551 38.0305C28.4668 38.0305 28.4107 38.0305 28.3266 38.0305C28.2424 38.0305 28.1863 38.0305 28.1022 38.0305C21.7638 37.9184 16.6313 32.7298 16.6313 26.3353ZM35.1979 63.9171H4.54347C5.80555 51.9695 15.9021 42.6021 28.1583 42.5179C28.2144 42.5179 28.2705 42.5179 28.3266 42.5179C28.3827 42.5179 28.4388 42.5179 28.4949 42.5179C34.3284 42.546 39.6572 44.7055 43.78 48.2113C39.7414 52.5865 36.7404 57.9713 35.1979 63.9171ZM102.873 75.0795C102.873 80.8289 98.1895 85.5126 92.44 85.5126H48.9685C43.2191 85.5126 38.5354 80.8289 38.5354 75.0795V73.1723C38.5354 55.7557 52.4462 41.5083 69.7507 41.0034C70.0592 41.0315 70.3958 41.0315 70.7043 41.0315C71.0128 41.0315 71.3493 41.0315 71.6578 41.0034C88.9623 41.5083 102.873 55.7557 102.873 73.1723V75.0795V75.0795ZM106.211 63.9171C104.668 57.9994 101.723 52.6987 97.7127 48.3235C101.864 44.7336 107.248 42.574 113.138 42.5179C113.194 42.5179 113.25 42.5179 113.306 42.5179C113.362 42.5179 113.419 42.5179 113.475 42.5179C125.731 42.6021 135.827 51.9695 137.089 63.9171H106.211Z" fill="#FF9914"></path></svg>