<svg xmlns="http://www.w3.org/2000/svg" width="93" height="93" viewBox="0 0 93 93" fill="none"><path d="M80.6425 0.798227C79.5789 -0.266076 77.8533 -0.266076 76.7897 0.798227L55.791 21.7969H8.17388C3.66689 21.7969 0 25.4638 0 29.9707V68.1146C0 72.6223 3.66689 76.2885 8.17388 76.2885H11.0801V90.2748C11.0801 91.3824 11.7507 92.38 12.7759 92.7979C13.8161 93.2222 14.989 92.9604 15.7524 92.1806L31.2984 76.2885H63.0297C67.5366 76.2885 71.2035 72.6223 71.2035 68.1146V37.2094L92.2023 16.2107C93.2659 15.1464 93.2659 13.4216 92.2023 12.3573L80.6425 0.798227ZM55.5965 45.1094L47.8903 37.4031L71.0098 14.2844L78.7161 21.9906L55.5965 45.1094ZM44.9875 42.2067L50.793 48.0121L40.8424 52.1572L44.9875 42.2067ZM65.7543 68.1146C65.7543 69.6174 64.5318 70.8392 63.0297 70.8392H30.1525C29.4196 70.8392 28.7171 71.1351 28.2048 71.6588L16.5294 83.5938V73.5639C16.5294 72.0596 15.3097 70.8392 13.8048 70.8392H8.17388C6.67178 70.8392 5.44925 69.6174 5.44925 68.1146V29.9707C5.44925 28.468 6.67178 27.2461 8.17388 27.2461H50.341L42.1104 35.4767C41.8833 35.7038 41.6584 36.0167 41.5087 36.3871L33.967 54.4923H19.254C17.7491 54.4923 16.5294 55.712 16.5294 57.2169C16.5294 58.7211 17.7491 59.9394 19.254 59.9394H35.782H35.7841C36.1346 59.9394 36.5107 59.8677 36.8548 59.7201L56.6126 51.4909C56.9418 51.3625 57.2739 51.139 57.5236 50.8893L65.7543 42.6587V68.1146ZM82.5689 18.1371L74.8626 10.4309L78.7161 6.5781L86.4224 14.2844L82.5689 18.1371Z" fill="#C66BD6"></path></svg>