<svg xmlns="http://www.w3.org/2000/svg" width="103" height="96" viewBox="0 0 103 96" fill="none"><path d="M90.3643 36.6087L90.3479 36.5382C90.0823 35.4144 88.9972 34.7292 87.9244 35.0071C86.8515 35.2853 86.1968 36.4215 86.4624 37.5455L86.4744 37.5964C86.6964 38.5556 87.5153 39.199 88.4178 39.199C88.5739 39.199 88.7326 39.1797 88.8909 39.1394C89.965 38.8665 90.6249 37.7335 90.3643 36.6087Z" fill="#36C5F1"></path><path d="M37.367 62.7255C32.3911 59.5811 29.4203 54.0752 29.4203 47.9974C29.4203 46.1187 29.7076 44.2728 30.2738 42.5111C30.6265 41.4141 30.063 40.2252 29.0156 39.856C27.9682 39.4871 26.8331 40.077 26.4804 41.1739C25.7755 43.3674 25.418 45.6632 25.418 47.9976C25.418 55.5572 29.1121 62.405 35.2994 66.3151C35.623 66.5194 35.9793 66.6167 36.3314 66.6167C37.0095 66.6167 37.6709 66.2553 38.0468 65.603C38.6178 64.6119 38.3136 63.3237 37.367 62.7255Z" fill="#36C5F1"></path><path d="M59.8245 32.4344C56.0241 28.687 51.055 26.623 45.8326 26.623C43.3869 26.623 40.9938 27.0721 38.72 27.9571C37.684 28.3606 37.1564 29.567 37.5415 30.6522C37.9266 31.7374 39.0785 32.29 40.1149 31.8865C41.9412 31.1754 43.8647 30.8149 45.8328 30.8149C50.0312 30.8149 54.0257 32.4738 57.0805 35.4863C57.467 35.8676 57.96 36.0565 58.452 36.0565C58.9844 36.0565 59.5157 35.8353 59.9096 35.3972C60.6672 34.5546 60.6289 33.2279 59.8245 32.4344Z" fill="#36C5F1"></path><path d="M100.48 48.63H85.4225V44.2938C85.4225 42.186 83.785 40.4711 81.7724 40.4711H79.0857C77.7098 33.7736 74.5411 27.6736 69.8904 22.8028C61.9988 14.538 50.7233 10.8522 39.728 12.9415C38.6405 13.1482 37.9188 14.2391 38.1161 15.3782C38.3135 16.5172 39.3553 17.2723 40.4428 17.0662C50.1462 15.222 60.0969 18.4745 67.06 25.7673C70.9589 29.8505 73.6782 34.9112 74.9811 40.4713H64.0552C62.0426 40.4713 60.4051 42.1862 60.4051 44.294V48.6302H45.348C44.2428 48.6302 43.3467 49.5689 43.3467 50.7263V63.5843C43.3467 65.5518 44.0782 67.3427 45.2698 68.6779V79.4345C37.462 79.2949 30.1704 76.0602 24.6042 70.2306C17.4596 62.7481 14.3988 52.0819 16.4166 41.698C16.6369 40.5637 15.9376 39.4569 14.8545 39.2261C13.7711 38.9951 12.7147 39.7278 12.4943 40.862C10.2081 52.628 13.6768 64.7148 21.7736 73.1947C28.0037 79.7194 36.489 83.465 45.2696 83.6232V91.2185C45.2696 91.4151 45.2822 91.6084 45.3044 91.7987C22.4822 91.5015 4.00256 71.9694 4.00256 47.9988C4.00256 40.5034 5.823 33.1766 9.28074 26.6838L16.0335 33.7893C16.4092 34.1847 16.9198 34.4069 17.452 34.4069H30.0399L42.3803 47.3308C42.7712 47.7402 43.2834 47.9448 43.7954 47.9448C44.3076 47.9448 44.82 47.7402 45.2105 47.3308C45.9922 46.5122 45.9922 45.1851 45.2105 44.3663L32.87 31.4424V18.2592C32.87 17.7025 32.6584 17.1685 32.2819 16.7753L25.5104 9.70093C31.7021 6.09185 38.6864 4.19183 45.8312 4.19183C62.0673 4.19183 76.9718 14.1642 83.803 29.5979C84.1417 30.3631 84.8647 30.8129 85.6201 30.8129C85.9019 30.8129 86.1881 30.7502 86.4605 30.618C87.4633 30.131 87.8995 28.885 87.4347 27.8348C83.808 19.641 78.0631 12.6977 70.8204 7.75563C63.3851 2.68171 54.7439 0 45.8314 0C37.6205 0 29.601 2.29097 22.5734 6.63268L16.8135 0.614405C16.2404 0.0159313 15.3802 -0.162667 14.633 0.162248C13.8856 0.486954 13.3988 1.25082 13.3988 2.09812V13.9768H2.0214C1.21256 13.9768 0.483582 14.4864 0.173337 15.2683C-0.136908 16.0504 0.0324257 16.951 0.602877 17.5513L6.35402 23.6029C2.19473 30.9726 0 39.3846 0 47.9986C0 60.8196 4.76737 72.8733 13.4238 81.9391C22.0803 91.0051 33.5897 95.9977 45.8318 95.9977L95.9921 96C98.5097 96 100.558 93.8551 100.558 91.2183V68.6788C101.799 67.2911 102.481 65.491 102.481 63.5803V50.7258C102.481 49.5685 101.585 48.63 100.48 48.63ZM17.4014 7.14982L28.8676 19.1285V27.2418L17.4014 15.2063V7.14982ZM14.5697 18.1691L26.0372 30.214H18.2839L6.837 18.1691H14.5697V18.1691ZM64.4077 44.6631H81.4194V48.63H64.4077V44.6631ZM96.5549 81.7454H83.4209C82.3157 81.7454 81.4196 82.6841 81.4196 83.8414C81.4196 84.9988 82.3157 85.9375 83.4209 85.9375H96.5549V91.2181C96.5549 91.5434 96.3025 91.808 95.9921 91.808H52.2887C52.2743 91.8077 52.2605 91.8057 52.2461 91.8057H49.8138C49.5133 91.7937 49.2721 91.5359 49.2721 91.2183V70.9423C49.6639 71.0123 50.0658 71.0509 50.4761 71.0509H66.9819C67.3368 74.1495 69.8608 76.5598 72.9136 76.5598C75.971 76.5598 78.4982 74.142 78.8469 71.0364L95.3464 71.0473C95.348 71.0473 95.3494 71.0473 95.351 71.0473C95.7587 71.0473 96.1608 71.0096 96.5547 70.9398V81.7454H96.5549ZM70.9407 70.3013V66.6167H74.887V70.3013C74.887 71.4408 74.0017 72.3677 72.9138 72.3677C71.826 72.3677 70.9407 71.4408 70.9407 70.3013ZM98.4782 63.5803C98.4782 64.4557 98.1528 65.2783 97.5615 65.8969C96.9708 66.5151 96.186 66.8555 95.351 66.8555C95.3504 66.8555 95.3498 66.8555 95.349 66.8555L78.8896 66.8446V64.9236C78.8896 63.5457 77.8193 62.4247 76.5035 62.4247H69.3236C68.008 62.4247 66.9375 63.5455 66.9375 64.9236V66.8588H50.4761C48.7517 66.8588 47.349 65.3896 47.349 63.5839V52.8221H98.478V63.5803H98.4782Z" fill="#36C5F1"></path><path d="M75.0296 82.3603C74.6573 81.9704 74.1409 81.7461 73.6147 81.7461C73.0862 81.7461 72.572 81.9702 72.1977 82.3603C71.8254 82.7502 71.6133 83.291 71.6133 83.8421C71.6133 84.3934 71.8254 84.934 72.1977 85.3237C72.572 85.7136 73.0864 85.9381 73.6147 85.9381C74.1411 85.9381 74.6555 85.7138 75.0296 85.3237C75.4019 84.934 75.616 84.3932 75.616 83.8421C75.616 83.291 75.4019 82.7502 75.0296 82.3603Z" fill="#36C5F1"></path></svg>