<svg xmlns="http://www.w3.org/2000/svg" width="79" height="95" viewBox="0 0 79 95" fill="none"><path d="M77.5125 82.0567L68.0849 72.6291C72.2272 65.2386 71.4247 55.8034 65.6787 49.2048V19.5872C65.6787 17.0856 63.6434 15.0504 61.1419 15.0504H50.1811V13.6113C50.1811 9.75954 47.0474 6.62567 43.1955 6.62567H41.5089V4.97264C41.5089 2.23082 39.2781 0 36.5363 0H29.1426C26.4008 0 24.17 2.23064 24.17 4.97264V6.62585H22.4834C18.6316 6.62585 15.4977 9.75954 15.4977 13.6115V15.0506H4.53679C2.03526 15.0506 0 17.0858 0 19.5874V90.4632C0 92.9647 2.03526 95 4.53679 95H52.5465C53.3135 95 53.9353 94.3782 53.9353 93.6112C53.9353 92.8441 53.3135 92.2224 52.5465 92.2224H4.53679C3.56675 92.2224 2.77763 91.4332 2.77763 90.4632V19.5872C2.77763 18.6171 3.56675 17.828 4.53679 17.828H15.4976V18.2822C15.4976 19.5892 16.5609 20.6528 17.8681 20.6528H22.4106C23.1777 20.6528 23.7994 20.031 23.7994 19.264C23.7994 18.4969 23.1777 17.8751 22.4106 17.8751H18.2752V13.6113C18.2752 11.291 20.1629 9.40329 22.4832 9.40329H43.1953C45.5156 9.40329 47.4033 11.291 47.4033 13.6113V17.875H29.1495C28.3824 17.875 27.7607 18.4967 27.7607 19.2638C27.7607 20.0308 28.3824 20.6526 29.1495 20.6526H47.8104C49.1174 20.6526 50.181 19.5892 50.181 18.282V17.8278H61.1417C62.1118 17.8278 62.9009 18.617 62.9009 19.587V46.56C56.3455 41.3887 47.2007 40.6773 39.8752 44.9935C39.2144 45.3829 38.9944 46.2342 39.3837 46.8951C39.7729 47.5558 40.6242 47.7759 41.2853 47.3866C48.2203 43.3003 57.0445 44.4272 62.7441 50.127C69.6345 57.0174 69.6345 68.229 62.7441 75.1197C59.4061 78.4576 54.9682 80.2958 50.2478 80.2958C45.5273 80.2958 41.0892 78.4576 37.7514 75.1197C31.2794 68.6476 30.8548 58.1288 36.7853 51.1729C37.2829 50.5892 37.2131 49.7126 36.6294 49.215C36.0457 48.7176 35.1693 48.7869 34.6715 49.3709C31.3456 53.2722 29.6198 58.2518 29.8123 63.3924C30.0056 68.5615 32.1277 73.4238 35.7876 77.0835C39.6501 80.946 44.7856 83.0733 50.2479 83.0733C53.8117 83.0733 57.236 82.1673 60.2585 80.4652L62.9011 83.1078V90.4625C62.9011 91.4325 62.1119 92.2216 61.1419 92.2216H59.2516C58.4845 92.2216 57.8628 92.8434 57.8628 93.6104C57.8628 94.3775 58.4845 94.9993 59.2516 94.9993H61.1419C63.6434 94.9993 65.6787 92.964 65.6787 90.4625V85.8852L69.6811 89.8876C70.3008 90.5074 71.1148 90.8172 71.929 90.8172C72.743 90.8172 73.5574 90.5074 74.1771 89.8876L77.5126 86.5521C78.1131 85.9517 78.4439 85.1532 78.4439 84.304C78.4437 83.4555 78.1129 82.6571 77.5125 82.0567V82.0567ZM26.9474 4.97264C26.9474 3.76232 27.9321 2.77763 29.1424 2.77763H36.5361C37.7464 2.77763 38.7311 3.76232 38.7311 4.97264V6.62585H26.9474V4.97264ZM75.5485 84.5886L72.2131 87.9242C72.0563 88.0808 71.8017 88.0808 71.6451 87.9242L62.6257 78.9048C63.3534 78.3491 64.0498 77.7423 64.7083 77.0838C65.3701 76.422 65.9758 75.7249 66.5278 75L75.5485 84.0207C75.7049 84.1773 75.7049 84.432 75.5485 84.5886V84.5886Z" fill="#C66BD6"></path><path d="M44.4264 32.0198H56.198C56.9651 32.0198 57.5868 31.398 57.5868 30.631C57.5868 29.864 56.9651 29.2422 56.198 29.2422H44.4264C43.6594 29.2422 43.0376 29.864 43.0376 30.631C43.0376 31.398 43.6594 32.0198 44.4264 32.0198Z" fill="#C66BD6"></path><path d="M10.108 32.0198H35.8023C36.5693 32.0198 37.1911 31.398 37.1911 30.631C37.1911 29.864 36.5693 29.2422 35.8023 29.2422H10.108C9.341 29.2422 8.71924 29.864 8.71924 30.631C8.71924 31.398 9.341 32.0198 10.108 32.0198Z" fill="#C66BD6"></path><path d="M10.108 37.7347H35.8023C36.5693 37.7347 37.1911 37.1129 37.1911 36.3458C37.1911 35.5788 36.5693 34.957 35.8023 34.957H10.108C9.341 34.957 8.71924 35.5788 8.71924 36.3458C8.71924 37.1127 9.341 37.7347 10.108 37.7347Z" fill="#C66BD6"></path><path d="M26.3619 42.338C26.3619 41.571 25.7401 40.9492 24.9731 40.9492H10.108C9.341 40.9492 8.71924 41.571 8.71924 42.338C8.71924 43.1051 9.341 43.7268 10.108 43.7268H24.9731C25.7401 43.7268 26.3619 43.1051 26.3619 42.338Z" fill="#C66BD6"></path><path d="M44.4264 37.7347H56.198C56.9651 37.7347 57.5868 37.1129 57.5868 36.3458C57.5868 35.5788 56.9651 34.957 56.198 34.957H44.4264C43.6594 34.957 43.0376 35.5788 43.0376 36.3458C43.0376 37.1127 43.6594 37.7347 44.4264 37.7347Z" fill="#C66BD6"></path><path d="M14.9685 55.8672C11.244 55.8672 8.21387 58.8973 8.21387 62.6218C8.21387 66.3465 11.244 69.3766 14.9685 69.3766C18.6931 69.3766 21.7233 66.3465 21.7233 62.6218C21.7233 58.8973 18.6931 55.8672 14.9685 55.8672V55.8672ZM14.9685 66.5992C12.7755 66.5992 10.9915 64.8152 10.9915 62.622C10.9915 60.429 12.7755 58.645 14.9685 58.645C17.1615 58.645 18.9457 60.429 18.9457 62.622C18.9457 64.815 17.1616 66.5992 14.9685 66.5992Z" fill="#C66BD6"></path><path d="M14.9685 74.5938C11.244 74.5938 8.21387 77.6239 8.21387 81.3486C8.21387 85.073 11.244 88.1032 14.9685 88.1032C18.6931 88.1032 21.7233 85.073 21.7233 81.3486C21.7233 77.6239 18.6931 74.5938 14.9685 74.5938V74.5938ZM14.9685 85.3256C12.7755 85.3256 10.9915 83.5415 10.9915 81.3486C10.9915 79.1556 12.7755 77.3714 14.9685 77.3714C17.1615 77.3714 18.9457 79.1556 18.9457 81.3486C18.9457 83.5415 17.1616 85.3256 14.9685 85.3256Z" fill="#C66BD6"></path><path d="M26.4293 82.7366H32.8394C33.6065 82.7366 34.2282 82.1148 34.2282 81.3478C34.2282 80.5808 33.6065 79.959 32.8394 79.959H26.4293C25.6623 79.959 25.0405 80.5808 25.0405 81.3478C25.0405 82.1148 25.6623 82.7366 26.4293 82.7366Z" fill="#C66BD6"></path></svg>