<svg xmlns="http://www.w3.org/2000/svg" width="100" height="100" viewBox="0 0 100 100" fill="none"><g clip-path="url(#clip0)"><path d="M13.9355 38.0213C14.4504 36.8311 15.0207 35.6793 15.6352 34.5721C16.4158 33.1547 17.274 31.8094 18.1984 30.5305C18.6691 29.8771 19.5881 29.7332 20.2414 30.2039C20.8947 30.6799 21.0387 31.5936 20.5682 32.2467C19.6934 33.4537 18.9018 34.6994 18.1875 35.9895C17.8168 36.6537 17.4678 37.3348 17.1412 38.0213H22.4783C23.2922 38.0213 23.9455 38.6746 23.9455 39.4828V46.4199V52.3051C23.9455 53.6615 23.6521 54.9516 23.1262 56.1197C24.6654 56.7619 25.9777 57.5813 26.9797 58.5281C28.4191 59.8789 29.2441 61.5012 29.2441 63.2617V70.4092C29.2441 71.2176 28.5852 71.8764 27.7768 71.8764H18.6803C19.1619 72.7012 19.6768 73.5096 20.2193 74.2902C21.2326 75.7463 22.3396 77.1139 23.5355 78.3816C24.0893 78.9684 24.0615 79.893 23.4691 80.4467C22.8822 81.0004 21.9578 80.9725 21.4041 80.3857C20.1031 78.9961 18.9018 77.5178 17.8166 75.9621C16.9086 74.6555 16.0781 73.2936 15.3305 71.8762H1.46719C0.658984 71.8762 0 71.2174 0 70.409V63.2615C0 61.5121 0.813867 59.9065 2.23125 58.5557C3.23887 57.5979 4.56758 56.7674 6.11777 56.1195C5.5918 54.9514 5.29844 53.6613 5.29844 52.3049V46.4197V43.8842C5.29844 42.2676 5.95723 40.8004 7.02031 39.7375C8.0832 38.6801 9.55059 38.0211 11.1617 38.0211H13.9355V38.0213ZM91.7729 50.0963L84.0439 47.4775L78.9891 49.9578V52.3053C78.9891 54.0604 79.709 55.6604 80.8658 56.8176C82.023 57.9746 83.623 58.6943 85.3781 58.6943C87.1389 58.6943 88.7332 57.9746 89.8959 56.8176C91.0531 55.6605 91.7729 54.0604 91.7729 52.3053V50.0963ZM78.9891 46.708L83.2189 44.6373C83.5676 44.4324 83.9996 44.3771 84.4146 44.5154L91.7729 47.0068V43.8844C91.7729 43.076 91.4459 42.3453 90.909 41.8137C90.3773 41.2768 89.6467 40.95 88.8383 40.95H81.9176C81.1148 40.95 80.384 41.2766 79.8469 41.8137C79.3154 42.3451 78.9887 43.076 78.9887 43.8844V46.708H78.9891ZM8.22715 44.9529H21.0164V40.9502H11.1615C10.3588 40.9502 9.62246 41.2768 9.09082 41.8139C8.55937 42.3453 8.22695 43.0762 8.22695 43.8846V44.9529H8.22715ZM21.0164 47.8816H8.22715V52.3053C8.22715 54.0604 8.94707 55.6604 10.1098 56.8176C11.267 57.9746 12.867 58.6943 14.6221 58.6943C16.377 58.6943 17.9771 57.9746 19.1342 56.8176C20.2969 55.6605 21.0166 54.0604 21.0166 52.3053V47.8816H21.0164ZM56.3945 76.8539C54.3018 77.1584 50.8912 77.1252 48.0623 74.6283C47.0713 75.2041 45.5043 75.8463 43.6055 75.6914V79.2402C43.6055 80.9953 44.3254 82.5953 45.4879 83.758C46.6451 84.915 48.2449 85.6348 50 85.6348C51.7605 85.6348 53.3551 84.915 54.5178 83.758C55.6748 82.5953 56.3945 80.9953 56.3945 79.2402V76.8539ZM43.6055 72.7568C45.7371 73.0559 47.2375 71.6606 47.2375 71.6551L47.243 71.6606L47.2762 71.6273C47.8852 71.1014 48.8041 71.1678 49.3357 71.777C51.6277 74.4123 54.8057 74.2184 56.3947 73.9084V70.8191C56.3947 70.0164 56.0625 69.2801 55.5311 68.7484C54.9994 68.217 54.2688 67.8848 53.4604 67.8848H46.5396C45.7371 67.8848 45.0006 68.217 44.4689 68.7484C43.9375 69.2801 43.6053 70.0164 43.6053 70.8191V72.7568H43.6055ZM21.476 58.6059C19.7098 60.527 17.2352 61.6287 14.6219 61.6287C12.0086 61.6287 9.53379 60.527 7.76758 58.6113C6.31152 59.1539 5.10449 59.857 4.24648 60.6709C3.41055 61.4682 2.92871 62.3539 2.92871 63.2619V68.9479H26.315V63.2619C26.315 62.3484 25.8277 61.457 24.9752 60.6543C24.117 59.8459 22.9209 59.1484 21.476 58.6059V58.6059ZM94.7016 52.3053C94.7016 53.6617 94.4082 54.9518 93.8822 56.1199C95.4326 56.7676 96.7557 57.5981 97.7633 58.5504C99.1861 59.9014 100 61.5068 100 63.2619V70.4094C100 71.2178 99.3467 71.8766 98.5385 71.8766H84.6195C83.8666 73.2439 83.0195 74.5838 82.0949 75.885C80.9932 77.4297 79.7863 78.9023 78.4852 80.2865C77.9314 80.8734 77.0068 80.9012 76.4201 80.3475C75.8332 79.7938 75.8055 78.8693 76.3537 78.2824C77.5715 76.9926 78.6955 75.6195 79.7143 74.191C80.2512 73.4381 80.7605 72.6686 81.2422 71.8768H72.2232C71.4148 71.8768 70.7561 71.218 70.7561 70.4096V63.2621C70.7561 61.5016 71.5809 59.8904 73.0146 58.5342C74.0168 57.5873 75.3346 56.7625 76.8793 56.1203C76.3477 54.9521 76.0543 53.6621 76.0543 52.3057V43.8848C76.0543 42.2682 76.7186 40.801 77.776 39.7381C78.8389 38.6807 80.3061 38.0217 81.9172 38.0217H82.875C82.5594 37.3463 82.2162 36.6818 81.8508 36.0285C81.1254 34.7219 80.3117 33.4484 79.4203 32.2305C78.9441 31.5772 79.0828 30.6637 79.7359 30.1877C80.3836 29.7115 81.2971 29.8498 81.7789 30.5031C82.7311 31.8098 83.6115 33.1828 84.4031 34.6111C85.0176 35.7129 85.577 36.8533 86.0809 38.0215H88.8379C90.4543 38.0215 91.9219 38.6805 92.9848 39.7379C94.0422 40.8008 94.701 42.268 94.701 43.8846V52.3053H94.7016ZM92.2322 58.6113C90.466 60.527 87.9967 61.6287 85.3779 61.6287C82.7647 61.6287 80.2955 60.527 78.5238 58.6113C77.0789 59.1484 75.8773 59.8516 75.0193 60.6598C74.1721 61.4625 73.6904 62.3539 73.6904 63.2619V68.9479H97.0711V63.2619C97.0711 62.3539 96.5893 61.4682 95.7479 60.6709C94.8953 59.857 93.6885 59.1539 92.2322 58.6113V58.6113ZM59.3234 79.24C59.3234 80.5965 59.0301 81.892 58.5041 83.0547C60.0543 83.708 61.3775 84.5328 62.3852 85.4906C62.9332 86.0111 63.3928 86.5703 63.7473 87.1627C64.9209 86.6645 66.0615 86.1053 67.1742 85.4852C68.7133 84.627 70.1973 83.6471 71.6143 82.5674C72.2566 82.0746 73.1701 82.1965 73.6627 82.8387C74.15 83.4809 74.0281 84.4 73.3859 84.8871C71.8689 86.0443 70.2689 87.1018 68.5914 88.0373C67.3016 88.757 65.9727 89.4049 64.6162 89.9641C64.6217 90.0414 64.6217 90.1246 64.6217 90.2022V97.3496C64.6217 98.158 63.9682 98.8111 63.1602 98.8111H36.8453C36.0369 98.8111 35.3781 98.1578 35.3781 97.3496V90.2022C35.3781 90.1246 35.3836 90.0471 35.3836 89.9697C33.9883 89.3994 32.632 88.7572 31.3199 88.043C29.6479 87.135 28.0533 86.1053 26.5363 84.9703C25.8887 84.4887 25.7613 83.5752 26.243 82.9273C26.7248 82.285 27.6438 82.1522 28.2859 82.6395C29.6867 83.6857 31.1648 84.6326 32.715 85.4797C33.8557 86.1053 35.035 86.6645 36.2475 87.1684C36.6018 86.5816 37.0559 86.0279 37.5982 85.5074C38.6059 84.5441 39.9346 83.7137 41.5016 83.0604C40.9697 81.8922 40.6764 80.6022 40.6764 79.2402V70.8193C40.6764 69.2082 41.3352 67.7412 42.3982 66.6781C43.4613 65.6152 44.9285 64.9564 46.5395 64.9564H53.4602C55.0768 64.9564 56.5439 65.6152 57.6014 66.6781C58.6645 67.7412 59.3232 69.2082 59.3232 70.8193V79.24H59.3234ZM56.8541 85.5461C55.0881 87.4672 52.6133 88.5635 50 88.5635C47.3869 88.5635 44.9119 87.4672 43.1459 85.5461C41.6844 86.0887 40.4771 86.8029 39.6135 87.6223C38.783 88.4139 38.307 89.2998 38.307 90.2023V95.8826H61.693V90.2023C61.693 89.2943 61.2113 88.4029 60.3754 87.6113C59.5172 86.7973 58.3103 86.0885 56.8541 85.5461V85.5461ZM24.7426 27.4357C24.1611 27.9949 23.2365 27.9783 22.6775 27.3969C22.1184 26.8156 22.135 25.891 22.7162 25.3318C23.8789 24.2135 25.0971 23.1727 26.376 22.2148C27.4334 21.4232 28.5518 20.6758 29.7199 19.9781C30.0965 14.9787 32.2777 10.4832 35.6219 7.14453C39.2979 3.46289 44.3861 1.1875 50 1.1875C55.6195 1.1875 60.7021 3.46289 64.384 7.14453C67.7 10.4607 69.876 14.9232 70.2746 19.8783C71.4205 20.5814 72.5279 21.3455 73.5908 22.1537C74.8699 23.1281 76.099 24.1855 77.2617 25.3205C77.8432 25.8797 77.8541 26.8043 77.2949 27.3855C76.7301 27.9613 75.8057 27.9725 75.2299 27.4133C74.1502 26.3668 73.0096 25.3869 71.8191 24.4789C71.31 24.0857 70.7896 23.7148 70.2689 23.3551C69.815 28.9191 67.3291 32.7006 64.9428 36.3215C62.7836 39.6045 60.7131 42.7492 60.6799 46.9736L60.6854 53.7445C60.6854 55.6934 59.8881 57.4596 58.6037 58.7439C57.3244 60.0229 55.5529 60.8201 53.6098 60.8201H46.3959C44.4469 60.8201 42.6754 60.0229 41.3961 58.7439C40.1172 57.4594 39.3201 55.6934 39.3201 53.7445L39.3254 46.9736C39.2867 42.7494 37.2217 39.6045 35.0625 36.3215C32.6818 32.7117 30.207 28.9525 29.742 23.4217C29.1939 23.7871 28.6568 24.1691 28.1309 24.5621C26.924 25.4594 25.7945 26.4227 24.7426 27.4357V27.4357ZM42.2488 51.5248H57.751V48.5572H42.2488V51.5248ZM57.69 54.4535H42.31C42.4596 55.3115 42.8746 56.0813 43.467 56.6736C44.2199 57.4266 45.2553 57.8916 46.3959 57.8916H53.6098C54.7447 57.8916 55.7799 57.4266 56.533 56.6736C57.1254 56.0813 57.5404 55.3115 57.69 54.4535ZM48.5881 32.701C48.35 31.8262 47.9348 30.6303 47.4643 29.2627C46.141 25.4371 44.3805 20.3436 44.3805 16.4957C44.3805 12.8029 45.7924 10.1676 49.9998 10.1676C54.2072 10.1676 55.6248 12.8029 55.6248 16.4957C55.6248 20.3436 53.8643 25.4371 52.541 29.2627C52.0648 30.6357 51.6498 31.8428 51.4061 32.7176C51.1957 33.4982 50.3928 33.9522 49.6178 33.7418C49.0922 33.5977 48.7156 33.1881 48.5881 32.701V32.701ZM47.3094 16.4957C47.3094 19.6957 48.7875 24.1525 50 27.6793C51.218 24.1525 52.6963 19.6957 52.6963 16.4957C52.6963 14.5137 52.0154 13.0963 50 13.0963C47.9848 13.0965 47.3094 14.5139 47.3094 16.4957ZM48.5385 37.8719C48.5385 37.0635 49.1918 36.4104 50 36.4104C50.8082 36.4104 51.4672 37.0637 51.4672 37.8719V39.3943C51.4672 40.2027 50.8084 40.8561 50 40.8561C49.1916 40.8561 48.5385 40.2027 48.5385 39.3943V37.8719ZM42.177 45.6285H57.8229C58.2105 41.2492 60.3145 38.0492 62.5068 34.7217C64.9039 31.0787 67.4119 27.2641 67.4119 21.5285C67.4119 16.7174 65.4633 12.3656 62.3131 9.21543C59.1629 6.06523 54.8111 4.11641 50 4.11641C45.1943 4.11641 40.8426 6.06523 37.6924 9.21543C34.542 12.3656 32.5934 16.7174 32.5934 21.5285C32.5934 27.2643 35.1014 31.0787 37.4986 34.7217C39.6854 38.0492 41.7949 41.249 42.177 45.6285V45.6285Z" fill="#FF9914"></path></g><defs><clipPath id="clip0"><rect width="100" height="100" fill="white"></rect></clipPath></defs></svg>