<svg version="1.1" id="Layer_1" xmlns="http://www.w3.org/2000/svg" xmlns:xlink="http://www.w3.org/1999/xlink" x="0px" y="0px"
	 width="100%" viewBox="0 0 79 88" enable-background="new 0 0 79 88" xml:space="preserve">
<path fill="#FF991" opacity="1.000000" stroke="none" 
	d="
M80.000000,33.000000 
	C80.000000,51.623814 80.000000,70.247627 80.000000,88.935715 
	C53.770107,88.935715 27.540022,88.935715 1.000000,88.935715 
	C1.000000,70.646935 1.000000,52.292126 1.408757,33.457634 
	C9.056888,30.471889 16.238455,27.632381 24.120483,29.058041 
	C24.073675,29.012705 23.989191,28.913778 23.606812,29.177141 
	C24.830002,32.449429 22.923744,32.929287 20.607220,32.981228 
	C17.838171,33.043312 15.066665,32.995869 12.315812,32.995869 
	C12.315812,45.983997 12.315812,58.380150 12.315812,70.998817 
	C13.447151,70.998817 14.315739,70.815712 15.069700,71.032059 
	C17.662903,71.776184 21.200138,69.070442 22.881130,73.137802 
	C20.354939,73.758720 17.846975,74.778076 15.297712,74.894707 
	C12.429249,75.025925 11.290313,75.739372 12.343072,78.549469 
	C20.919922,78.549469 29.383089,78.549469 37.846256,78.549469 
	C37.944035,77.930878 38.041813,77.312294 38.139591,76.693703 
	C35.194012,76.128899 32.268780,75.365059 29.296522,75.061203 
	C26.845211,74.810608 24.505278,74.924591 25.388750,70.575912 
	C29.905378,71.165993 34.336151,71.744850 39.308044,72.394409 
	C39.308044,67.122726 39.308044,61.632256 39.308044,56.141777 
	C43.707672,61.177128 40.956276,67.109039 42.030647,71.467316 
	C51.035446,71.467316 59.839306,71.467316 68.999413,71.467316 
	C68.999413,67.178207 68.729050,63.851414 69.080559,60.591686 
	C69.390480,57.717674 67.410919,54.046959 72.000443,51.038303 
	C72.000443,60.464386 71.846077,68.753510 72.061157,77.033020 
	C72.180855,81.640968 70.233986,83.101677 65.816864,83.061455 
	C48.996994,82.908287 32.173695,82.888641 15.354407,83.070992 
	C10.639785,83.122116 8.850669,81.482315 8.926534,76.704926 
	C9.132769,63.717758 8.990146,50.724979 8.964382,37.734470 
	C8.963460,37.269775 8.736202,36.805531 8.595309,36.268147 
	C7.130662,36.268147 5.740707,36.268147 4.004955,36.268147 
	C4.004955,50.987019 3.943259,65.448097 4.045123,79.908020 
	C4.073185,83.891670 6.774601,85.026093 10.366821,85.018959 
	C30.352404,84.979271 50.338829,84.909424 70.323227,85.068291 
	C74.914589,85.104790 76.832069,82.518379 76.896309,78.827972 
	C77.142090,64.709427 76.995674,50.584053 76.995674,36.236572 
	C75.209106,36.236572 73.819489,36.236572 72.515190,36.236572 
	C70.689690,40.391422 73.897926,45.466808 70.520691,49.059193 
	C70.016373,48.998318 69.512054,48.937439 69.007736,48.876564 
	C69.007736,43.666595 69.007736,38.456631 69.007736,32.999229 
	C66.077614,32.999229 63.720798,32.705681 61.468990,33.066841 
	C57.939075,33.632992 57.345276,31.522484 56.986725,28.943987 
	C56.964520,28.976189 56.917252,29.038525 57.327103,29.312513 
	C58.677319,29.391649 59.628151,29.237043 60.556377,28.995546 
	C67.698624,27.137320 73.365891,32.413555 80.000000,33.000000 
M52.567757,79.000282 
	C57.038124,78.999817 61.512714,78.880219 65.977455,79.038506 
	C69.251144,79.154564 69.360107,77.644157 68.588203,75.002174 
	C61.408783,75.002174 54.465733,74.844292 47.539742,75.118027 
	C45.897663,75.182930 44.312798,76.695511 42.701614,77.542175 
	C42.899647,78.028214 43.097683,78.514244 43.295715,79.000282 
	C46.061779,79.000282 48.827847,79.000282 52.567757,79.000282 
z"/>
<path fill="#000000" opacity="1.000000" stroke="none" 
	d="
M24.167294,29.103378 
	C16.238455,27.632381 9.056888,30.471889 1.408757,32.988976 
	C1.000000,22.407970 1.000000,11.815940 1.000000,1.000000 
	C11.019785,1.000000 21.041235,1.000000 31.866524,1.238195 
	C26.926268,5.897124 22.060179,10.822247 23.046217,19.074062 
	C24.581121,18.099785 25.554153,16.761978 25.984652,15.267852 
	C28.113251,7.880173 36.453724,2.389061 43.324162,4.174215 
	C52.928391,6.669692 57.607063,15.291522 55.699448,20.999678 
	C53.509853,27.551626 49.427986,33.471191 46.168118,39.665466 
	C44.891346,35.281208 44.393013,31.550400 49.234627,29.743242 
	C50.255276,29.362280 51.021690,26.530550 50.754025,25.033957 
	C50.544186,23.860659 48.499790,22.145044 47.372704,22.219450 
	C45.853882,22.319721 44.101067,23.637011 43.053005,24.924099 
	C41.685280,26.603764 40.869583,28.585445 38.913197,25.626652 
	C37.474705,23.451111 36.256763,20.986183 32.852833,22.578541 
	C29.116518,24.326384 30.102036,27.098526 30.883842,30.109745 
	C30.562881,30.422527 30.435287,30.548447 30.048103,30.440792 
	C27.919863,27.064074 26.051212,23.920929 24.182564,20.777786 
	C23.699173,20.967499 23.215784,21.157209 22.732393,21.346922 
	C23.210693,23.932407 23.688993,26.517893 24.167294,29.103378 
M14.450222,5.162856 
	C13.963217,10.094424 15.019527,11.125120 21.481310,10.237176 
	C18.839825,8.056205 17.037321,6.567946 14.450222,5.162856 
z"/>
<path fill="#FF9914" opacity="1.000000" stroke="none" 
	d="
M31.077209,29.922886 
	C30.102036,27.098526 29.116518,24.326384 32.852833,22.578541 
	C36.256763,20.986183 37.474705,23.451111 38.913197,25.626652 
	C40.869583,28.585445 41.685280,26.603764 43.053005,24.924099 
	C44.101067,23.637011 45.853882,22.319721 47.372704,22.219450 
	C48.499790,22.145044 50.544186,23.860659 50.754025,25.033957 
	C51.021690,26.530550 50.255276,29.362280 49.234627,29.743242 
	C44.393013,31.550400 44.891346,35.281208 46.168118,39.665466 
	C49.427986,33.471191 53.509853,27.551626 55.699448,20.999678 
	C57.607063,15.291522 52.928391,6.669692 43.324162,4.174215 
	C36.453724,2.389061 28.113251,7.880173 25.984652,15.267852 
	C25.554153,16.761978 24.581121,18.099785 23.046217,19.074062 
	C22.060179,10.822247 26.926268,5.897124 32.335182,1.238195 
	C37.354931,1.000000 42.709858,1.000000 48.197113,1.237558 
	C58.476009,9.286058 61.857681,14.565604 56.917252,29.038525 
	C56.917252,29.038525 56.964520,28.976189 56.660439,29.082073 
	C52.874126,36.217136 49.631397,43.383835 45.732601,50.173824 
	C44.816891,51.768597 41.680481,52.780331 39.573624,52.767437 
	C38.046940,52.758095 35.566391,50.868252 35.175762,49.380054 
	C33.126926,41.574451 29.141872,34.955635 23.989191,28.913778 
	C23.989191,28.913778 24.073675,29.012705 24.120483,29.058041 
	C23.688993,26.517893 23.210693,23.932407 22.732393,21.346922 
	C23.215784,21.157209 23.699173,20.967499 24.182564,20.777786 
	C26.051212,23.920929 27.919863,27.064074 30.267422,30.713692 
	C32.186428,33.741695 33.626518,36.263222 35.066612,38.784752 
	C35.318363,38.654137 35.570114,38.523521 35.821865,38.392906 
	C35.821865,36.018707 35.821865,33.644508 35.821865,31.342978 
	C34.117996,30.833004 32.597603,30.377945 31.077209,29.922886 
M39.006691,37.175133 
	C39.503815,39.317303 40.000938,41.459469 40.498066,43.601639 
	C40.996769,43.618637 41.495472,43.635635 41.994175,43.652634 
	C41.994175,40.194954 42.066875,36.734543 41.937153,33.281738 
	C41.908813,32.527443 41.157875,31.800299 40.739727,31.060648 
	C40.161739,31.811262 39.345604,32.484783 39.070835,33.333557 
	C38.779526,34.233440 39.002533,35.299816 39.006691,37.175133 
z"/>
<path fill="#000000" opacity="1.000000" stroke="none" 
	d="
M57.327103,29.312513 
	C61.857681,14.565604 58.476009,9.286058 48.664719,1.237558 
	C59.261028,1.000000 69.522057,1.000000 80.000000,1.000000 
	C80.000000,11.353220 80.000000,21.707951 80.000000,32.531342 
	C73.365891,32.413555 67.698624,27.137320 60.556377,28.995546 
	C59.628151,29.237043 58.677319,29.391649 57.327103,29.312513 
z"/>
<path fill="#000000" opacity="1.000000" stroke="none" 
	d="
M23.606812,29.177141 
	C29.141872,34.955635 33.126926,41.574451 35.175762,49.380054 
	C35.566391,50.868252 38.046940,52.758095 39.573624,52.767437 
	C41.680481,52.780331 44.816891,51.768597 45.732601,50.173824 
	C49.631397,43.383835 52.874126,36.217136 56.682640,29.049870 
	C57.345276,31.522484 57.939075,33.632992 61.468990,33.066841 
	C63.720798,32.705681 66.077614,32.999229 69.007736,32.999229 
	C69.007736,38.456631 69.007736,43.666595 69.007736,48.876564 
	C69.512054,48.937439 70.016373,48.998318 70.520691,49.059193 
	C73.897926,45.466808 70.689690,40.391422 72.515190,36.236572 
	C73.819489,36.236572 75.209106,36.236572 76.995674,36.236572 
	C76.995674,50.584053 77.142090,64.709427 76.896309,78.827972 
	C76.832069,82.518379 74.914589,85.104790 70.323227,85.068291 
	C50.338829,84.909424 30.352404,84.979271 10.366821,85.018959 
	C6.774601,85.026093 4.073185,83.891670 4.045123,79.908020 
	C3.943259,65.448097 4.004955,50.987019 4.004955,36.268147 
	C5.740707,36.268147 7.130662,36.268147 8.595309,36.268147 
	C8.736202,36.805531 8.963460,37.269775 8.964382,37.734470 
	C8.990146,50.724979 9.132769,63.717758 8.926534,76.704926 
	C8.850669,81.482315 10.639785,83.122116 15.354407,83.070992 
	C32.173695,82.888641 48.996994,82.908287 65.816864,83.061455 
	C70.233986,83.101677 72.180855,81.640968 72.061157,77.033020 
	C71.846077,68.753510 72.000443,60.464386 72.000443,51.038303 
	C67.410919,54.046959 69.390480,57.717674 69.080559,60.591686 
	C68.729050,63.851414 68.999413,67.178207 68.999413,71.467316 
	C59.839306,71.467316 51.035446,71.467316 42.030647,71.467316 
	C40.956276,67.109039 43.707672,61.177128 39.308044,56.141777 
	C39.308044,61.632256 39.308044,67.122726 39.308044,72.394409 
	C34.336151,71.744850 29.905378,71.165993 25.388750,70.575912 
	C24.505278,74.924591 26.845211,74.810608 29.296522,75.061203 
	C32.268780,75.365059 35.194012,76.128899 38.139591,76.693703 
	C38.041813,77.312294 37.944035,77.930878 37.846256,78.549469 
	C29.383089,78.549469 20.919922,78.549469 12.343072,78.549469 
	C11.290313,75.739372 12.429249,75.025925 15.297712,74.894707 
	C17.846975,74.778076 20.354939,73.758720 22.881130,73.137802 
	C21.200138,69.070442 17.662903,71.776184 15.069700,71.032059 
	C14.315739,70.815712 13.447151,70.998817 12.315812,70.998817 
	C12.315812,58.380150 12.315812,45.983997 12.315812,32.995869 
	C15.066665,32.995869 17.838171,33.043312 20.607220,32.981228 
	C22.923744,32.929287 24.830002,32.449429 23.606812,29.177141 
M24.526318,53.999950 
	C26.848028,53.992054 29.191605,54.163471 31.480244,53.884373 
	C32.345860,53.778816 33.084641,52.633183 33.881233,51.961639 
	C33.059284,51.314602 32.255642,50.136639 31.412384,50.107567 
	C26.331934,49.932396 21.242403,50.020523 15.800532,50.020523 
	C16.677124,55.933117 20.910728,53.288570 24.526318,53.999950 
M25.450638,56.000237 
	C22.309280,57.034477 17.383579,53.434280 15.643703,59.999928 
	C19.646589,59.999928 23.132456,60.259556 26.556999,59.913071 
	C29.040361,59.661816 31.442486,58.607651 33.880833,57.911507 
	C31.383547,57.274418 28.886263,56.637325 25.450638,56.000237 
M57.458218,49.999542 
	C55.307636,50.000015 53.149853,50.112572 51.008148,49.974915 
	C47.726479,49.763985 47.639076,51.370708 48.418484,53.998554 
	C53.111328,53.998554 57.564980,53.886177 62.009823,54.035652 
	C65.309044,54.146599 65.367958,52.611015 64.565582,49.999542 
	C62.354965,49.999542 60.385735,49.999542 57.458218,49.999542 
M64.858261,56.613525 
	C59.334965,56.337109 53.811665,56.060692 48.288368,55.784279 
	C48.016716,56.348217 47.745064,56.912155 47.473415,57.476093 
	C48.479832,58.315819 49.438892,59.802109 50.501122,59.879917 
	C54.453266,60.169407 58.449059,60.144272 62.405281,59.884331 
	C63.310394,59.824863 64.122971,58.357063 64.858261,56.613525 
M28.302620,65.999672 
	C30.158854,65.999672 32.015087,65.999672 34.554813,65.999672 
	C30.846500,61.867435 17.553528,62.010845 15.870556,65.999680 
	C19.873182,65.999680 23.617968,65.999680 28.302620,65.999672 
M56.497597,63.000389 
	C53.726910,63.000389 50.956223,63.000389 48.007824,63.000389 
	C49.118557,66.287811 56.020607,67.072929 65.380768,65.337479 
	C63.470478,61.295811 59.919506,63.788830 56.497597,63.000389 
M28.131311,46.989105 
	C28.733593,46.432793 29.335875,45.876484 29.938156,45.320171 
	C29.212944,44.882515 28.499659,44.091503 27.760513,44.066551 
	C23.956272,43.938137 20.141186,43.912613 16.340303,44.083279 
	C15.558703,44.118370 14.821524,45.142742 14.063871,45.711128 
	C14.797788,46.138470 15.519444,46.908306 16.267698,46.935089 
	C19.906076,47.065334 23.551577,46.996639 28.131311,46.989105 
M66.853577,44.581459 
	C61.632057,44.581459 56.410538,44.581459 49.850292,44.581459 
	C54.573692,47.655544 64.035583,47.671387 66.853577,44.581459 
z"/>
<path fill="#000000" opacity="1.000000" stroke="none" 
	d="
M52.080833,79.000282 
	C48.827847,79.000282 46.061779,79.000282 43.295715,79.000282 
	C43.097683,78.514244 42.899647,78.028214 42.701614,77.542175 
	C44.312798,76.695511 45.897663,75.182930 47.539742,75.118027 
	C54.465733,74.844292 61.408783,75.002174 68.588203,75.002174 
	C69.360107,77.644157 69.251144,79.154564 65.977455,79.038506 
	C61.512714,78.880219 57.038124,78.999817 52.080833,79.000282 
z"/>
<path fill="#FF9914" opacity="1.000000" stroke="none" 
	d="
M14.842518,5.121272 
	C17.037321,6.567946 18.839825,8.056205 21.481310,10.237176 
	C15.019527,11.125120 13.963217,10.094424 14.842518,5.121272 
z"/>
<path fill="#000000" opacity="1.000000" stroke="none" 
	d="
M39.003807,36.734306 
	C39.002533,35.299816 38.779526,34.233440 39.070835,33.333557 
	C39.345604,32.484783 40.161739,31.811262 40.739727,31.060650 
	C41.157875,31.800299 41.908813,32.527443 41.937153,33.281738 
	C42.066875,36.734543 41.994175,40.194954 41.994175,43.652634 
	C41.495472,43.635635 40.996769,43.618637 40.498066,43.601639 
	C40.000938,41.459469 39.503815,39.317303 39.003807,36.734306 
z"/>
<path fill="#000000" opacity="1.000000" stroke="none" 
	d="
M30.883842,30.109745 
	C32.597603,30.377945 34.117996,30.833004 35.821865,31.342978 
	C35.821865,33.644508 35.821865,36.018707 35.821865,38.392906 
	C35.570114,38.523521 35.318363,38.654137 35.066612,38.784752 
	C33.626518,36.263222 32.186428,33.741695 30.527014,30.947266 
	C30.435287,30.548447 30.562881,30.422527 30.883842,30.109745 
z"/>
<path fill="#FF9914" opacity="1.000000" stroke="none" 
	d="
M24.055595,53.999950 
	C20.910728,53.288570 16.677124,55.933117 15.800532,50.020523 
	C21.242403,50.020523 26.331934,49.932396 31.412384,50.107567 
	C32.255642,50.136639 33.059284,51.314602 33.881233,51.961639 
	C33.084641,52.633183 32.345860,53.778816 31.480244,53.884373 
	C29.191605,54.163471 26.848028,53.992054 24.055595,53.999950 
z"/>
<path fill="#FF9914" opacity="1.000000" stroke="none" 
	d="
M25.919807,56.000237 
	C28.886263,56.637325 31.383547,57.274418 33.880833,57.911507 
	C31.442486,58.607651 29.040361,59.661816 26.556999,59.913071 
	C23.132456,60.259556 19.646589,59.999928 15.643703,59.999928 
	C17.383579,53.434280 22.309280,57.034477 25.919807,56.000237 
z"/>
<path fill="#FF9914" opacity="1.000000" stroke="none" 
	d="
M57.937363,49.999542 
	C60.385735,49.999542 62.354965,49.999542 64.565582,49.999542 
	C65.367958,52.611015 65.309044,54.146599 62.009823,54.035652 
	C57.564980,53.886177 53.111328,53.998554 48.418484,53.998554 
	C47.639076,51.370708 47.726479,49.763985 51.008148,49.974915 
	C53.149853,50.112572 55.307636,50.000015 57.937363,49.999542 
z"/>
<path fill="#FF9914" opacity="1.000000" stroke="none" 
	d="
M64.918198,57.075478 
	C64.122971,58.357063 63.310394,59.824863 62.405281,59.884331 
	C58.449059,60.144272 54.453266,60.169407 50.501122,59.879917 
	C49.438892,59.802109 48.479832,58.315819 47.473415,57.476093 
	C47.745064,56.912155 48.016716,56.348217 48.288368,55.784279 
	C53.811665,56.060692 59.334965,56.337109 64.918198,57.075478 
z"/>
<path fill="#FF9914" opacity="1.000000" stroke="none" 
	d="
M27.832687,65.999680 
	C23.617968,65.999680 19.873182,65.999680 15.870556,65.999680 
	C17.553528,62.010845 30.846500,61.867435 34.554813,65.999672 
	C32.015087,65.999672 30.158854,65.999672 27.832687,65.999680 
z"/>
<path fill="#FF9914" opacity="1.000000" stroke="none" 
	d="
M56.976715,63.000389 
	C59.919506,63.788830 63.470478,61.295811 65.380768,65.337479 
	C56.020607,67.072929 49.118557,66.287811 48.007824,63.000389 
	C50.956223,63.000389 53.726910,63.000389 56.976715,63.000389 
z"/>
<path fill="#FF9914" opacity="1.000000" stroke="none" 
	d="
M27.662933,46.993744 
	C23.551577,46.996639 19.906076,47.065334 16.267698,46.935089 
	C15.519444,46.908306 14.797788,46.138470 14.063870,45.711128 
	C14.821524,45.142742 15.558703,44.118370 16.340303,44.083279 
	C20.141186,43.912613 23.956272,43.938137 27.760513,44.066551 
	C28.499659,44.091503 29.212944,44.882515 29.938156,45.320171 
	C29.335875,45.876484 28.733593,46.432793 27.662933,46.993744 
z"/>
<path fill="#FF9914" opacity="1.000000" stroke="none" 
	d="
M66.907227,45.041046 
	C64.035583,47.671387 54.573692,47.655544 49.850292,44.581459 
	C56.410538,44.581459 61.632057,44.581459 66.907227,45.041046 
z"/>
</svg>