<svg version="1.1" id="Layer_1" xmlns="http://www.w3.org/2000/svg" xmlns:xlink="http://www.w3.org/1999/xlink" x="0px" y="0px"
	 width="100%" viewBox="0 0 96 96" enable-background="new 0 0 96 96" xml:space="preserve">
<path fill="" opacity="1.000000" stroke="none" 
	d="
M35.000000,97.000000 
	C23.694906,97.000000 12.389811,97.000000 1.042358,97.000000 
	C1.042358,65.108017 1.042358,33.215969 1.042358,1.000000 
	C16.019342,1.000000 31.041012,1.000000 46.880432,1.311986 
	C47.259254,5.035919 46.725033,8.442255 46.523312,11.868169 
	C46.502281,12.225351 48.451080,12.698517 50.000000,13.326189 
	C50.000000,8.655789 50.000000,4.827895 50.000000,1.000000 
	C65.627846,1.000000 81.255692,1.000000 96.941772,1.000000 
	C96.941772,32.881798 96.941772,64.763725 96.941772,97.000000 
	C85.981636,97.000000 74.959480,97.000000 63.171329,96.609848 
	C62.720436,93.299950 63.035530,90.380211 63.367786,87.301453 
	C64.874130,87.058151 66.408752,86.810287 67.901573,86.569176 
	C67.901573,85.430420 68.149475,83.976852 67.864494,83.863533 
	C63.390903,82.084824 64.551163,78.867493 66.033630,75.985092 
	C67.719315,72.707573 69.562225,69.374275 71.981003,66.633797 
	C83.290367,53.820236 81.628960,36.513920 70.506813,26.460533 
	C57.219631,14.450159 38.409698,14.712827 25.900139,28.572407 
	C15.601661,39.982288 16.013422,54.533661 25.586279,66.165489 
	C27.841106,68.905289 29.948713,71.899155 31.428816,75.097839 
	C32.449509,77.303680 33.352722,80.611366 32.412292,82.464218 
	C30.303165,86.619659 29.821808,86.375343 33.603989,87.751213 
	C34.085258,90.939690 34.542629,93.969849 35.000000,97.000000 
M79.320473,26.129932 
	C80.962875,24.836285 82.635254,23.578579 84.240326,22.240171 
	C86.401306,20.438221 86.863945,18.658548 84.126587,16.937046 
	C81.803925,18.712168 79.479851,20.202316 77.547173,22.092632 
	C76.653389,22.966829 76.523178,24.621712 76.046776,25.922646 
	C76.965523,26.179455 77.884270,26.436262 79.320473,26.129932 
M21.915598,25.383892 
	C20.724468,20.347900 16.702093,18.175282 12.652472,15.433382 
	C12.094132,19.425291 16.809317,24.659395 21.915598,25.383892 
z"/>
<path fill="#C66BD6" opacity="1.000000" stroke="none" 
	d="
M35.468658,97.000000 
	C34.542629,93.969849 34.085258,90.939690 33.603989,87.751213 
	C29.821808,86.375343 30.303165,86.619659 32.412292,82.464218 
	C33.352722,80.611366 32.449509,77.303680 31.428816,75.097839 
	C29.948713,71.899155 27.841106,68.905289 25.586279,66.165489 
	C16.013422,54.533661 15.601661,39.982288 25.900139,28.572407 
	C38.409698,14.712827 57.219631,14.450159 70.506813,26.460533 
	C81.628960,36.513920 83.290367,53.820236 71.981003,66.633797 
	C69.562225,69.374275 67.719315,72.707573 66.033630,75.985092 
	C64.551163,78.867493 63.390903,82.084824 67.864494,83.863533 
	C68.149475,83.976852 67.901573,85.430420 67.901573,86.569176 
	C66.408752,86.810287 64.874130,87.058151 63.367786,87.301453 
	C63.035530,90.380211 62.720436,93.299950 62.702671,96.609848 
	C53.979103,97.000000 44.958210,97.000000 35.468658,97.000000 
M29.962381,65.035141 
	C29.962381,65.035141 29.912336,64.985504 30.149231,65.643127 
	C32.971043,71.119568 35.792858,76.596016 38.961372,82.745323 
	C45.240227,82.745323 52.993458,82.745323 60.608250,82.745323 
	C60.999275,80.564812 61.052387,78.542061 61.743217,76.767586 
	C63.290237,72.793915 65.154617,68.943787 67.322945,64.710747 
	C67.562050,64.437271 67.801147,64.163788 68.816864,63.669765 
	C68.880806,63.085831 68.944748,62.501892 68.969620,61.969925 
	C68.969620,61.969925 68.928123,62.019981 69.421646,62.724171 
	C81.391846,50.556736 75.208588,30.091030 59.037060,24.028440 
	C46.002174,19.141750 33.215332,23.585529 25.376001,35.125202 
	C19.781441,43.360523 21.557650,56.810638 29.000414,62.997494 
	C29.000414,62.997494 28.932779,62.909180 28.991516,63.582726 
	C29.331192,64.084023 29.670870,64.585320 29.962381,65.035141 
M56.286827,92.999084 
	C61.645866,93.564423 59.664959,89.949654 59.907764,87.242905 
	C52.445198,87.242905 45.397175,87.242905 38.262215,87.242905 
	C38.262215,89.209503 38.262215,90.929878 38.262215,92.999237 
	C44.120731,92.999237 49.726608,92.999237 56.286827,92.999084 
z"/>
<path fill="#C66BD5" opacity="1.000000" stroke="none" 
	d="
M49.625000,1.000000 
	C50.000000,4.827895 50.000000,8.655789 50.000000,13.326189 
	C48.451080,12.698517 46.502281,12.225351 46.523312,11.868169 
	C46.725033,8.442255 47.259254,5.035919 47.349091,1.311986 
	C47.750000,1.000000 48.500000,1.000000 49.625000,1.000000 
z"/>
<path fill="#C66BD5" opacity="1.000000" stroke="none" 
	d="
M79.061745,26.411503 
	C77.884270,26.436262 76.965523,26.179455 76.046776,25.922646 
	C76.523178,24.621712 76.653389,22.966829 77.547173,22.092632 
	C79.479851,20.202316 81.803925,18.712168 84.126587,16.937046 
	C86.863945,18.658548 86.401306,20.438221 84.240326,22.240171 
	C82.635254,23.578579 80.962875,24.836285 79.061745,26.411503 
z"/>
<path fill="#C66BD6" opacity="1.000000" stroke="none" 
	d="
M21.644539,25.650578 
	C16.809317,24.659395 12.094132,19.425291 12.652472,15.433382 
	C16.702093,18.175282 20.724468,20.347900 21.644539,25.650578 
z"/>
<path fill="#C66BD6" opacity="1.000000" stroke="none" 
	d="
M68.040253,63.890312 
	C67.801147,64.163788 67.562050,64.437271 66.697487,64.873833 
	C65.167809,65.354149 64.222755,66.026588 63.366306,65.928154 
	C59.288223,65.459488 56.556118,66.790184 53.975948,70.272705 
	C51.055340,74.214737 45.683647,74.475357 43.614601,70.530090 
	C40.306316,64.221832 34.503563,66.633392 29.912336,64.985504 
	C29.912336,64.985504 29.962381,65.035141 30.339230,64.818405 
	C30.121647,64.037506 29.527214,63.473343 28.932779,62.909180 
	C28.932779,62.909180 29.000414,62.997494 29.004192,62.649399 
	C28.074970,57.459862 22.086500,51.941257 31.032644,48.811550 
	C26.239759,36.734318 27.661661,34.171917 39.875446,32.524956 
	C39.936848,29.079752 40.248077,24.747593 44.720600,25.262859 
	C48.443901,25.691809 52.463120,27.724026 55.293674,30.237240 
	C57.125790,31.863953 58.342514,33.009430 60.860916,33.063160 
	C67.461830,33.203999 70.528526,37.582047 68.592117,43.870579 
	C68.071060,45.562744 67.197784,47.146450 66.498695,48.751236 
	C72.781769,51.989048 73.094635,53.098289 69.781471,58.786144 
	C69.240578,59.714714 69.199959,60.934692 68.928123,62.019981 
	C68.928123,62.019981 68.969620,61.969925 68.692078,62.044765 
	C68.289772,62.709843 68.165009,63.300076 68.040253,63.890312 
M47.375187,41.947670 
	C45.628845,43.083599 42.990707,43.854374 42.341629,45.439587 
	C41.324856,47.922798 40.426151,51.953884 41.700722,53.520348 
	C43.559906,55.805313 47.587944,57.884007 50.330948,57.496857 
	C53.758488,57.013088 56.881611,53.782120 56.834160,49.525864 
	C56.785179,45.131935 53.194672,42.128284 47.375187,41.947670 
M37.388382,37.010197 
	C31.069351,37.661633 30.556707,39.579773 35.105480,46.032280 
	C38.773045,43.933807 38.296101,40.434391 37.388382,37.010197 
M59.022114,38.432995 
	C60.042530,41.069031 61.062946,43.705063 62.083363,46.341099 
	C62.745308,46.213902 63.407257,46.086700 64.069206,45.959499 
	C64.316048,43.517021 65.023682,40.976551 64.537422,38.689976 
	C64.385582,37.975994 61.010044,37.947563 59.022114,38.432995 
M50.591915,68.069168 
	C51.494736,66.992523 52.397556,65.915886 53.300377,64.839241 
	C53.079113,64.425629 52.857849,64.012009 52.636585,63.598389 
	C50.084984,63.771408 47.533382,63.944427 43.558025,64.213982 
	C46.020641,67.164009 46.472237,70.002594 50.591915,68.069168 
M64.520309,59.118820 
	C63.156670,57.896179 61.793030,56.673538 60.306881,55.341057 
	C59.859642,57.493099 59.435425,59.534382 59.011204,61.575665 
	C59.326458,61.955952 59.641716,62.336235 59.956970,62.716518 
	C61.611874,61.738708 63.266773,60.760899 64.520309,59.118820 
z"/>
<path fill="#000000" opacity="1.000000" stroke="none" 
	d="
M69.174881,62.372078 
	C69.199959,60.934692 69.240578,59.714714 69.781471,58.786144 
	C73.094635,53.098289 72.781769,51.989048 66.498695,48.751236 
	C67.197784,47.146450 68.071060,45.562744 68.592117,43.870579 
	C70.528526,37.582047 67.461830,33.203999 60.860916,33.063160 
	C58.342514,33.009430 57.125790,31.863953 55.293674,30.237240 
	C52.463120,27.724026 48.443901,25.691809 44.720600,25.262859 
	C40.248077,24.747593 39.936848,29.079752 39.875446,32.524956 
	C27.661661,34.171917 26.239759,36.734318 31.032644,48.811550 
	C22.086500,51.941257 28.074970,57.459862 29.038193,62.693417 
	C21.557650,56.810638 19.781441,43.360523 25.376001,35.125202 
	C33.215332,23.585529 46.002174,19.141750 59.037060,24.028440 
	C75.208588,30.091030 81.391846,50.556736 69.174881,62.372078 
z"/>
<path fill="#000000" opacity="1.000000" stroke="none" 
	d="
M30.030785,65.314316 
	C34.503563,66.633392 40.306316,64.221832 43.614601,70.530090 
	C45.683647,74.475357 51.055340,74.214737 53.975948,70.272705 
	C56.556118,66.790184 59.288223,65.459488 63.366306,65.928154 
	C64.222755,66.026588 65.167809,65.354149 66.480896,65.040131 
	C65.154617,68.943787 63.290237,72.793915 61.743217,76.767586 
	C61.052387,78.542061 60.999275,80.564812 60.608250,82.745323 
	C52.993458,82.745323 45.240227,82.745323 38.961372,82.745323 
	C35.792858,76.596016 32.971043,71.119568 30.030785,65.314316 
z"/>
<path fill="#000000" opacity="1.000000" stroke="none" 
	d="
M55.809654,92.999161 
	C49.726608,92.999237 44.120731,92.999237 38.262215,92.999237 
	C38.262215,90.929878 38.262215,89.209503 38.262215,87.242905 
	C45.397175,87.242905 52.445198,87.242905 59.907764,87.242905 
	C59.664959,89.949654 61.645866,93.564423 55.809654,92.999161 
z"/>
<path fill="#000000" opacity="1.000000" stroke="none" 
	d="
M68.428558,63.780037 
	C68.165009,63.300076 68.289772,62.709843 68.711617,62.018784 
	C68.944748,62.501892 68.880806,63.085831 68.428558,63.780037 
z"/>
<path fill="#000000" opacity="1.000000" stroke="none" 
	d="
M28.962147,63.245953 
	C29.527214,63.473343 30.121647,64.037506 30.363314,64.844147 
	C29.670870,64.585320 29.331192,64.084023 28.962147,63.245953 
z"/>
<path fill="#000000" opacity="1.000000" stroke="none" 
	d="
M47.686623,41.729969 
	C53.194672,42.128284 56.785179,45.131935 56.834160,49.525864 
	C56.881611,53.782120 53.758488,57.013088 50.330948,57.496857 
	C47.587944,57.884007 43.559906,55.805313 41.700722,53.520348 
	C40.426151,51.953884 41.324856,47.922798 42.341629,45.439587 
	C42.990707,43.854374 45.628845,43.083599 47.686623,41.729969 
M53.669628,51.826214 
	C55.065891,47.767414 53.017406,45.234295 49.463287,44.409859 
	C48.081589,44.089344 45.135674,45.747528 44.737827,47.060547 
	C44.132397,49.058655 44.321564,52.325272 45.612740,53.647449 
	C47.994991,56.086910 51.033360,55.455196 53.669628,51.826214 
z"/>
<path fill="#000000" opacity="1.000000" stroke="none" 
	d="
M37.796761,37.042400 
	C38.296101,40.434391 38.773045,43.933807 35.105480,46.032280 
	C30.556707,39.579773 31.069351,37.661633 37.796761,37.042400 
z"/>
<path fill="#000000" opacity="1.000000" stroke="none" 
	d="
M59.066154,38.019154 
	C61.010044,37.947563 64.385582,37.975994 64.537422,38.689976 
	C65.023682,40.976551 64.316048,43.517021 64.069206,45.959499 
	C63.407257,46.086700 62.745308,46.213902 62.083363,46.341099 
	C61.062946,43.705063 60.042530,41.069031 59.066154,38.019154 
z"/>
<path fill="#000000" opacity="1.000000" stroke="none" 
	d="
M50.281357,68.304916 
	C46.472237,70.002594 46.020641,67.164009 43.558025,64.213982 
	C47.533382,63.944427 50.084984,63.771408 52.636585,63.598389 
	C52.857849,64.012009 53.079113,64.425629 53.300377,64.839241 
	C52.397556,65.915886 51.494736,66.992523 50.281357,68.304916 
z"/>
<path fill="#000000" opacity="1.000000" stroke="none" 
	d="
M64.720993,59.450951 
	C63.266773,60.760899 61.611874,61.738708 59.956970,62.716518 
	C59.641716,62.336235 59.326458,61.955952 59.011204,61.575665 
	C59.435425,59.534382 59.859642,57.493099 60.306881,55.341057 
	C61.793030,56.673538 63.156670,57.896179 64.720993,59.450951 
z"/>
<path fill="#C66BD6" opacity="1.000000" stroke="none" 
	d="
M53.379940,52.096718 
	C51.033360,55.455196 47.994991,56.086910 45.612740,53.647449 
	C44.321564,52.325272 44.132397,49.058655 44.737827,47.060547 
	C45.135674,45.747528 48.081589,44.089344 49.463287,44.409859 
	C53.017406,45.234295 55.065891,47.767414 53.379940,52.096718 
z"/>
</svg>