<svg xmlns="http://www.w3.org/2000/svg" width="102" height="102" viewBox="0 0 102 102" fill="none"><path d="M55.6374 11.4527C55.6374 10.4836 55.35 9.53624 54.8116 8.73044C54.2732 7.92464 53.5079 7.2966 52.6126 6.92573C51.7172 6.55486 50.732 6.45782 49.7815 6.64689C48.831 6.83596 47.9579 7.30264 47.2726 7.98791C46.5873 8.67319 46.1206 9.54629 45.9316 10.4968C45.7425 11.4473 45.8395 12.4325 46.2104 13.3279C46.5813 14.2232 47.2093 14.9885 48.0151 15.5269C48.8209 16.0654 49.7683 16.3527 50.7374 16.3527C52.0361 16.3498 53.2807 15.8326 54.199 14.9143C55.1173 13.9961 55.6345 12.7514 55.6374 11.4527V11.4527ZM49.0974 11.4527C49.0984 11.1294 49.1953 10.8136 49.3757 10.5452C49.5562 10.2769 49.8122 10.0681 50.1113 9.94529C50.4105 9.82246 50.7393 9.79109 51.0563 9.85514C51.3732 9.9192 51.6641 10.0758 51.892 10.3052C52.12 10.5345 52.2748 10.8263 52.3369 11.1437C52.3991 11.461 52.3657 11.7897 52.241 12.088C52.1164 12.3864 51.906 12.6411 51.6366 12.82C51.3672 12.9988 51.0508 13.0937 50.7274 13.0927C50.2939 13.0909 49.8789 12.9172 49.5733 12.6097C49.2678 12.3023 49.0966 11.8862 49.0974 11.4527Z" fill="#FF9914"></path><path d="M9.0416 66.0647C8.20089 66.5492 7.52276 67.2722 7.09296 68.1422C6.66316 69.0121 6.50099 69.99 6.62698 70.9522C6.75296 71.9143 7.16143 72.8175 7.80073 73.5474C8.44003 74.2774 9.28144 74.8014 10.2186 75.0532C11.1557 75.305 12.1464 75.2732 13.0655 74.9619C13.9845 74.6505 14.7906 74.0737 15.3818 73.3042C15.973 72.5347 16.3227 71.6072 16.3868 70.639C16.4508 69.6708 16.2263 68.7053 15.7416 67.8647C15.0902 66.7392 14.0193 65.9178 12.7635 65.5804C11.5077 65.243 10.1693 65.4172 9.0416 66.0647V66.0647ZM12.3116 71.7297C12.0314 71.8912 11.7097 71.966 11.387 71.9446C11.0643 71.9232 10.7553 71.8066 10.4988 71.6096C10.2424 71.4126 10.0502 71.1439 9.94647 70.8376C9.84273 70.5314 9.83216 70.2012 9.91607 69.8889C9.99998 69.5766 10.1746 69.2962 10.4179 69.0831C10.6612 68.8701 10.9622 68.734 11.2828 68.692C11.6034 68.65 11.9293 68.7041 12.2192 68.8473C12.5092 68.9905 12.7501 69.2165 12.9116 69.4967C13.1281 69.8724 13.1866 70.3187 13.0741 70.7374C12.9615 71.1562 12.6873 71.5131 12.3116 71.7297V71.7297Z" fill="#FF9914"></path><path d="M92.4244 66.0665C91.2984 65.4362 89.9694 65.2749 88.7253 65.6176C87.4812 65.9602 86.4222 66.7793 85.7777 67.8972C85.1333 69.0152 84.9552 70.3421 85.2821 71.5904C85.6091 72.8387 86.4147 73.9079 87.5244 74.5665V74.5665C88.6504 75.1968 89.9794 75.3581 91.2235 75.0154C92.4676 74.6727 93.5266 73.8537 94.1711 72.7357C94.8156 71.6178 94.9936 70.2909 94.6667 69.0426C94.3398 67.7943 93.5342 66.725 92.4244 66.0665V66.0665ZM91.3894 71.1335C91.2279 71.4133 90.9871 71.639 90.6973 71.7819C90.4076 71.9249 90.082 71.9788 89.7616 71.9367C89.4413 71.8947 89.1406 71.7586 88.8976 71.5457C88.6545 71.3328 88.4801 71.0527 88.3962 70.7406C88.3124 70.4286 88.3229 70.0987 88.4265 69.7927C88.5301 69.4867 88.7221 69.2182 88.9783 69.0213C89.2344 68.8243 89.5431 68.7077 89.8655 68.6862C90.1879 68.6647 90.5094 68.7393 90.7894 68.9005C90.9756 69.0075 91.1389 69.1502 91.2699 69.3205C91.4008 69.4907 91.4969 69.6851 91.5527 69.8925C91.6084 70.0999 91.6227 70.3163 91.5947 70.5293C91.5667 70.7422 91.4969 70.9475 91.3894 71.1335V71.1335Z" fill="#FF9914"></path><path d="M95.6956 60.4036C93.2103 58.9678 90.276 58.5192 87.4753 59.1468C84.6746 59.7745 82.2123 61.4325 80.5776 63.7916L68.7176 57.8596V43.5326L86.8366 34.4716C87.916 35.869 89.4224 36.8754 91.1266 37.3376C92.688 37.756 94.3383 37.702 95.869 37.1824C97.3997 36.6629 98.742 35.7011 99.726 34.4187C100.71 33.1363 101.292 31.5908 101.398 29.9778C101.503 28.3648 101.128 26.7567 100.32 25.3568C99.5119 23.9569 98.3068 22.828 96.857 22.1131C95.4073 21.3981 93.7781 21.1291 92.1754 21.34C90.5728 21.551 89.0687 22.2324 87.8533 23.2982C86.638 24.364 85.766 25.7662 85.3476 27.3276C84.9833 28.712 84.9933 30.1683 85.3766 31.5476L68.7176 39.8766V29.4426H52.3676V22.7726C55.2314 22.3593 57.8324 20.8765 59.6471 18.6227C61.4618 16.369 62.3554 13.5115 62.1482 10.6254C61.941 7.7393 60.6483 5.03881 58.5303 3.0674C56.4122 1.09599 53.6261 0 50.7326 0C47.8391 0 45.0529 1.09599 42.9349 3.0674C40.8169 5.03881 39.5242 7.7393 39.317 10.6254C39.1098 13.5115 40.0034 16.369 41.8181 18.6227C43.6327 20.8765 46.2337 22.3593 49.0976 22.7726V29.4436H32.7476V39.8756L16.0916 31.5466C16.467 30.1633 16.4708 28.7054 16.1026 27.3202C15.7344 25.9349 15.0073 24.6713 13.9947 23.6569C12.982 22.6426 11.7196 21.9133 10.335 21.5428C8.95039 21.1722 7.49252 21.1736 6.10858 21.5466C4.85165 21.8749 3.69106 22.498 2.72302 23.3643C1.75497 24.2306 1.00735 25.3152 0.54213 26.5281C0.076906 27.741 -0.0925232 29.0474 0.047887 30.3388C0.188297 31.6303 0.634503 32.8697 1.34952 33.9543C2.06453 35.0389 3.02776 35.9375 4.15936 36.5755C5.29096 37.2136 6.55834 37.5727 7.85644 37.6232C9.15454 37.6737 10.446 37.414 11.6237 36.8657C12.8014 36.3175 13.8315 35.4964 14.6286 34.4706L32.7476 43.5316V57.8586L20.8856 63.7886C19.2337 61.4195 16.746 59.7639 13.9228 59.1549C11.0997 58.5459 8.1506 59.0287 5.66903 60.5062C3.18745 61.9837 1.35751 64.3462 0.547388 67.1183C-0.262731 69.8905 0.00709462 72.8666 1.30257 75.4478C2.59805 78.0291 4.82305 80.0239 7.52988 81.031C10.2367 82.038 13.2245 81.9826 15.8921 80.8758C18.5597 79.769 20.7092 77.6929 21.908 75.0654C23.1068 72.4379 23.266 69.4538 22.3536 66.7136L32.7476 61.5136V71.9516H49.0976V85.1966C47.1126 85.6018 45.3488 86.7296 44.1481 88.3613C42.9474 89.993 42.3954 92.0125 42.599 94.0281C42.8026 96.0437 43.7474 97.912 45.2502 99.2706C46.753 100.629 48.7067 101.381 50.7326 101.381C52.7585 101.381 54.7122 100.629 56.215 99.2706C57.7178 97.912 58.6626 96.0437 58.8662 94.0281C59.0698 92.0125 58.5177 89.993 57.317 88.3613C56.1163 86.7296 54.3525 85.6018 52.3676 85.1966V71.9516H68.7176V61.5136L79.1096 66.7136C78.4284 68.7682 78.3438 70.9738 78.8657 73.0745C79.3875 75.1752 80.4943 77.0848 82.0578 78.5818C83.6212 80.0788 85.577 81.1017 87.6984 81.532C89.8197 81.9622 92.0196 81.782 94.0427 81.0123C96.0658 80.2427 97.8291 78.9151 99.1281 77.1836C100.427 75.4522 101.208 73.3879 101.381 71.2303C101.555 69.0727 101.112 66.9102 100.106 64.9939C99.0993 63.0775 97.5701 61.4859 95.6956 60.4036V60.4036ZM88.5036 28.1736C88.7971 27.0774 89.4617 26.1169 90.3841 25.4558C91.3065 24.7946 92.4296 24.4738 93.562 24.5479C94.6944 24.622 95.7661 25.0865 96.5944 25.8623C97.4228 26.638 97.9565 27.6769 98.1046 28.8021C98.2528 29.9272 98.0062 31.0689 97.407 32.0326C96.8077 32.9963 95.8928 33.7224 94.8182 34.0872C93.7435 34.4519 92.5757 34.4328 91.5136 34.033C90.4515 33.6332 89.5609 32.8775 88.9936 31.8946C88.6702 31.3375 88.4603 30.7218 88.3762 30.0831C88.2921 29.4445 88.3354 28.7955 88.5036 28.1736V28.1736ZM42.5576 11.4586C42.5576 9.84175 43.037 8.2612 43.9353 6.91683C44.8336 5.57245 46.1104 4.52464 47.6041 3.9059C49.0979 3.28715 50.7416 3.12526 52.3274 3.44069C53.9132 3.75613 55.3699 4.53472 56.5132 5.67801C57.6565 6.82131 58.4351 8.27795 58.7505 9.86375C59.0659 11.4495 58.904 13.0933 58.2853 14.587C57.6665 16.0808 56.6187 17.3576 55.2744 18.2559C53.93 19.1542 52.3494 19.6336 50.7326 19.6336C48.5652 19.6312 46.4872 18.7692 44.9546 17.2366C43.422 15.704 42.56 13.626 42.5576 11.4586ZM12.4716 31.8956C11.9045 32.8771 11.0147 33.6316 9.9537 34.0305C8.89273 34.4295 7.72625 34.4484 6.65297 34.0838C5.57968 33.7193 4.66598 32.9939 4.06752 32.0312C3.46906 31.0686 3.22285 29.9282 3.37084 28.8044C3.51882 27.6806 4.05186 26.6429 4.87913 25.868C5.7064 25.0931 6.77674 24.629 7.90781 24.5547C9.03889 24.4804 10.1607 24.8006 11.0822 25.4606C12.0037 26.1207 12.6679 27.0798 12.9616 28.1746C13.2975 29.4309 13.1213 30.7691 12.4716 31.8956ZM15.5796 77.3956C14.1793 78.2041 12.5708 78.5792 10.9574 78.4735C9.34397 78.3679 7.79812 77.7861 6.51534 76.8018C5.23255 75.8176 4.27044 74.475 3.75068 72.944C3.23091 71.4129 3.17684 69.7621 3.59529 68.2003C4.01375 66.6385 4.88594 65.2359 6.10156 64.1698C7.31719 63.1037 8.82165 62.422 10.4247 62.211C12.0277 61.9999 13.6574 62.269 15.1075 62.9841C16.5576 63.6992 17.7632 64.8283 18.5716 66.2286C19.6531 68.1066 19.9455 70.337 19.3846 72.4303C18.8237 74.5237 17.4552 76.309 15.5796 77.3946V77.3956ZM55.6376 93.2056C55.6376 94.1747 55.3502 95.1221 54.8118 95.9279C54.2734 96.7337 53.5081 97.3618 52.6127 97.7326C51.7174 98.1035 50.7321 98.2005 49.7816 98.0115C48.8311 97.8224 47.958 97.3557 47.2728 96.6704C46.5875 95.9852 46.1208 95.1121 45.9317 94.1616C45.7427 93.211 45.8397 92.2258 46.2106 91.3305C46.5814 90.4351 47.2095 89.6698 48.0153 89.1314C48.8211 88.593 49.7684 88.3056 50.7376 88.3056C52.0362 88.3085 53.2809 88.8257 54.1992 89.744C55.1175 90.6623 55.6347 91.9069 55.6376 93.2056V93.2056ZM65.4476 68.6816H36.0186V32.7136H65.4476V68.6816ZM97.0526 74.4026C96.2441 75.8029 95.0386 76.932 93.5885 77.6471C92.1384 78.3622 90.5087 78.6313 88.9057 78.4202C87.3027 78.2092 85.7982 77.5275 84.5826 76.4614C83.3669 75.3953 82.4947 73.9927 82.0763 72.4309C81.6578 70.8691 81.7119 69.2183 82.2317 67.6872C82.7514 66.1562 83.7136 64.8136 84.9963 63.8294C86.2791 62.8451 87.825 62.2634 89.4384 62.1577C91.0518 62.052 92.6604 62.4271 94.0606 63.2356C95.9369 64.3209 97.3059 66.1064 97.8669 68.2001C98.4278 70.2938 98.135 72.5246 97.0526 74.4026V74.4026Z" fill="#FF9914"></path><path d="M62.1776 49.0625H52.3686V52.3325H45.8286V55.6025H39.2886V65.4125H62.1776V49.0625ZM42.5586 58.8725H45.8286V62.1425H42.5586V58.8725ZM49.0986 62.1425V55.6025H52.3686V62.1425H49.0986ZM58.9086 62.1425H55.6386V52.3325H58.9086V62.1425Z" fill="#FF9914"></path><path d="M39.2886 35.9824H42.5586V39.2524H39.2886V35.9824Z" fill="#FF9914"></path><path d="M45.8276 35.9824H62.1776V39.2524H45.8276V35.9824Z" fill="#FF9914"></path><path d="M39.2886 42.5234H62.1776V45.7934H39.2886V42.5234Z" fill="#FF9914"></path></svg>