<svg xmlns="http://www.w3.org/2000/svg" width="105" height="97" viewBox="0 0 105 97" fill="none"><path d="M99.5307 85.9797H96.8277C95.9007 83.8809 95.4217 81.6092 95.4217 79.312C95.4217 77.0148 95.9007 74.7432 96.8277 72.6443H99.5326C100.983 72.6443 102.373 72.064 103.399 71.031C104.424 69.998 105 68.597 105 67.1361C105 65.6752 104.424 64.2742 103.399 63.2412C102.373 62.2082 100.983 61.6278 99.5326 61.6278H88.6539C90.0897 59.9813 90.8809 57.8642 90.8796 55.6726V38.4148C90.8768 36.0143 89.929 33.7129 88.2442 32.0155C86.5594 30.3181 84.2751 29.3633 81.8924 29.3605H77.4695C77.8937 28.5063 78.0941 27.5571 78.0518 26.6029C78.0094 25.6487 77.7257 24.7213 77.2275 23.9087C76.7293 23.0961 76.0332 22.4253 75.2053 21.9599C74.3774 21.4946 73.4451 21.2502 72.4971 21.2499H70.9785C70.3076 19.6626 69.9618 17.9551 69.9618 16.2298C69.9618 14.5045 70.3076 12.797 70.9785 11.2097H72.5019C73.9647 11.1904 75.3612 10.5914 76.3889 9.54243C77.4167 8.49341 77.9929 7.07878 77.9929 5.60484C77.9929 4.1309 77.4167 2.71627 76.3889 1.66726C75.3612 0.618239 73.9647 0.0192574 72.5019 6.59836e-06H20.6138C17.4269 -0.0028887 14.3109 0.947101 11.6603 2.72967C9.00966 4.51223 6.94375 7.04719 5.72416 10.0135C4.50457 12.9798 4.18617 16.244 4.80927 19.3928C5.43238 22.5415 6.96897 25.4332 9.22444 27.7015C9.82458 28.3052 10.4703 28.8612 11.1559 29.3643H9.9657C8.51566 29.3643 7.12501 29.9446 6.09968 30.9776C5.07435 32.0106 4.49833 33.4117 4.49833 34.8726C4.49833 36.3334 5.07435 37.7345 6.09968 38.7675C7.12501 39.8005 8.51566 40.3808 9.9657 40.3808H12.6707C13.5976 42.4795 14.0766 44.7509 14.0766 47.048C14.0766 49.3451 13.5976 51.6165 12.6707 53.7152H9.9657C8.96837 53.7145 7.98988 53.9889 7.13632 54.5086C6.28276 55.0283 5.58669 55.7735 5.12359 56.6634C4.66048 57.5533 4.448 58.5539 4.50919 59.5568C4.57038 60.5597 4.90289 61.5266 5.47069 62.3526C3.84952 63.0492 2.46697 64.2099 1.49448 65.6908C0.52199 67.1716 0.0023498 68.9075 0 70.6832V87.9409C0.000500679 90.3415 0.946588 92.6439 2.63053 94.3424C4.31447 96.0409 6.59863 96.9967 8.98147 97H99.5269C100.977 97 102.368 96.4197 103.393 95.3867C104.418 94.3537 104.994 92.9526 104.994 91.4917C104.994 90.0309 104.418 88.6298 103.393 87.5968C102.368 86.5638 100.977 85.9835 99.5269 85.9835L99.5307 85.9797ZM99.5307 64.7279C100.165 64.7279 100.773 64.9817 101.222 65.4335C101.67 65.8853 101.922 66.4981 101.922 67.137C101.922 67.776 101.67 68.3888 101.222 68.8406C100.773 69.2924 100.165 69.5462 99.5307 69.5462H71.7729C71.5677 69.5411 71.3636 69.5774 71.1726 69.6529C70.9815 69.7285 70.8074 69.8418 70.6604 69.9862C70.5135 70.1306 70.3967 70.3032 70.317 70.4937C70.2373 70.6843 70.1962 70.889 70.1962 71.0958C70.1962 71.3025 70.2373 71.5073 70.317 71.6978C70.3967 71.8884 70.5135 72.0609 70.6604 72.2053C70.8074 72.3497 70.9815 72.463 71.1726 72.5386C71.3636 72.6142 71.5677 72.6504 71.7729 72.6453H93.5266C92.9374 74.2952 92.5651 76.0157 92.419 77.7629C92.419 77.7629 91.8049 80.8305 93.5295 85.9797H11.3799C11.2623 85.9782 11.1499 85.9305 11.0668 85.8467C10.9836 85.7629 10.9362 85.6497 10.9347 85.5312V73.0947C10.9362 72.9762 10.9836 72.863 11.0668 72.7793C11.1499 72.6955 11.2623 72.6477 11.3799 72.6463H26.617V77.7352C26.5281 78.193 26.5863 78.6674 26.7833 79.0895C26.9802 79.5117 27.3056 79.8596 27.7122 80.0827C28.1492 80.2705 28.6346 80.3112 29.0963 80.1987C29.558 80.0862 29.9714 79.8265 30.2748 79.4583L30.2986 79.4363L34.598 75.3055L38.8975 79.4363L38.9213 79.4583C39.3846 79.9458 40.0156 80.2359 40.6847 80.2692C40.9656 80.2688 41.2426 80.2034 41.4943 80.0779C41.9 79.854 42.2242 79.5055 42.4197 79.0831C42.6151 78.6607 42.6717 78.1865 42.581 77.7295V72.6443H64.2C64.6013 72.6343 64.9828 72.4666 65.2631 72.1771C65.5434 71.8876 65.7003 71.4992 65.7003 71.0948C65.7003 70.6904 65.5434 70.302 65.2631 70.0125C64.9828 69.723 64.6013 69.5553 64.2 69.5453H42.5877V64.7269H99.5288L99.5307 64.7279ZM17.0793 45.4946C16.9308 43.7471 16.5562 42.0267 15.965 40.377H79.5006C79.6182 40.3785 79.7306 40.4262 79.8138 40.51C79.8969 40.5938 79.9443 40.707 79.9458 40.8255V53.2629C79.9443 53.3814 79.8969 53.4946 79.8138 53.5784C79.7306 53.6621 79.6182 53.7099 79.5006 53.7114H42.5943V48.5937H53.3601C53.5653 48.5989 53.7695 48.5626 53.9605 48.487C54.1516 48.4114 54.3257 48.2981 54.4726 48.1537C54.6196 48.0093 54.7363 47.8368 54.8161 47.6462C54.8958 47.4557 54.9369 47.251 54.9369 47.0442C54.9369 46.8374 54.8958 46.6327 54.8161 46.4421C54.7363 46.2516 54.6196 46.079 54.4726 45.9346C54.3257 45.7902 54.1516 45.6769 53.9605 45.6013C53.7695 45.5258 53.5653 45.4895 53.3601 45.4946H17.0793ZM26.6132 53.7114H15.9612C16.5516 52.0613 16.9268 50.3411 17.0774 48.5937H26.6122L26.6132 53.7114ZM39.5211 48.5937L39.5097 75.7367L35.662 72.0429C35.376 71.7679 34.9958 71.6144 34.6004 71.6144C34.205 71.6144 33.8249 71.7679 33.5388 72.0429L29.693 75.7386L29.6873 48.5956H39.5202L39.5211 48.5937ZM7.57583 16.224C7.5806 12.7423 8.95596 9.40463 11.4002 6.9432C13.8444 4.48178 17.1579 3.0976 20.6138 3.09431H72.4981C73.1493 3.10712 73.7695 3.37675 74.2256 3.84528C74.6816 4.3138 74.9371 4.94384 74.9371 5.60006C74.9371 6.25628 74.6816 6.88632 74.2256 7.35484C73.7695 7.82336 73.1493 8.09299 72.4981 8.10581H44.1452C43.7439 8.11586 43.3624 8.28352 43.0821 8.57302C42.8018 8.86252 42.6449 9.25093 42.6449 9.65535C42.6449 10.0598 42.8018 10.4482 43.0821 10.7377C43.3624 11.0272 43.7439 11.1948 44.1452 11.2049H67.6974C66.6114 14.4622 66.6114 17.9878 67.6974 21.2451H20.6138C19.9479 21.2636 19.285 21.1475 18.6644 20.9035C18.0438 20.6596 17.478 20.2928 17.0005 19.8248C16.523 19.3568 16.1434 18.7971 15.8842 18.1788C15.625 17.5605 15.4915 16.8962 15.4915 16.225C15.4915 15.5538 15.625 14.8895 15.8842 14.2712C16.1434 13.6529 16.523 13.0932 17.0005 12.6252C17.478 12.1572 18.0438 11.7904 18.6644 11.5465C19.285 11.3025 19.9479 11.1864 20.6138 11.2049H36.5722C36.7774 11.21 36.9815 11.1737 37.1726 11.0982C37.3637 11.0226 37.5378 10.9093 37.6847 10.7649C37.8316 10.6205 37.9484 10.448 38.0281 10.2574C38.1079 10.0668 38.1489 9.86214 38.1489 9.65535C38.1489 9.44856 38.1079 9.24386 38.0281 9.05331C37.9484 8.86275 37.8316 8.69019 37.6847 8.5458C37.5378 8.4014 37.3637 8.28808 37.1726 8.21252C36.9815 8.13696 36.7774 8.10068 36.5722 8.10581H20.6138C18.4759 8.10581 16.4256 8.96143 14.9139 10.4844C13.4022 12.0074 12.553 14.0731 12.553 16.2269C12.553 18.3808 13.4022 20.4464 14.9139 21.9694C16.4256 23.4924 18.4759 24.348 20.6138 24.348H72.4981C73.1493 24.3608 73.7695 24.6305 74.2256 25.099C74.6816 25.5675 74.9371 26.1976 74.9371 26.8538C74.9371 27.51 74.6816 28.14 74.2256 28.6086C73.7695 29.0771 73.1493 29.3467 72.4981 29.3595H20.6138C17.1578 29.3532 13.8452 27.9673 11.4015 25.5053C8.95775 23.0432 7.5821 19.7059 7.57583 16.224ZM9.9657 37.2779C9.33149 37.2779 8.72325 37.0241 8.2748 36.5723C7.82634 36.1205 7.5744 35.5077 7.5744 34.8687C7.5744 34.2298 7.82634 33.617 8.2748 33.1652C8.72325 32.7134 9.33149 32.4596 9.9657 32.4596H81.8933C83.4605 32.4613 84.963 33.0893 86.0712 34.2058C87.1793 35.3222 87.8027 36.8359 87.8044 38.4148V55.6735C87.8027 57.2524 87.1793 58.7661 86.0712 59.8826C84.963 60.999 83.4605 61.627 81.8933 61.6288H42.5905V56.8104H79.5006C80.4342 56.8094 81.3293 56.4353 81.9894 55.7703C82.6495 55.1052 83.0208 54.2035 83.0218 53.2629V40.8255C83.0208 39.8849 82.6495 38.9832 81.9894 38.3181C81.3293 37.653 80.4342 37.2789 79.5006 37.2779H9.9657ZM9.9657 56.8104H26.6132V61.6288H9.9657C9.33149 61.6288 8.72325 61.375 8.2748 60.9232C7.82634 60.4714 7.5744 59.8586 7.5744 59.2196C7.5744 58.5807 7.82634 57.9679 8.2748 57.5161C8.72325 57.0643 9.33149 56.8104 9.9657 56.8104ZM99.5298 93.8971H8.98147C7.41521 93.8943 5.91399 93.2658 4.8071 92.1494C3.70021 91.0329 3.07803 89.5198 3.07703 87.9418V70.6832C3.07803 69.1052 3.70021 67.592 4.8071 66.4756C5.91399 65.3592 7.41521 64.7307 8.98147 64.7279H26.6151V69.5462H11.3799C10.4461 69.5472 9.55094 69.9214 8.89078 70.5867C8.23061 71.252 7.85942 72.154 7.85866 73.0947V85.5322C7.85967 86.4727 8.23097 87.3745 8.89111 88.0395C9.55125 88.7046 10.4463 89.0787 11.3799 89.0797H99.5307C100.165 89.0797 100.773 89.3335 101.222 89.7853C101.67 90.2371 101.922 90.8499 101.922 91.4889C101.922 92.1278 101.67 92.7406 101.222 93.1924C100.773 93.6442 100.165 93.8981 99.5307 93.8981L99.5298 93.8971Z" fill="#C66BD6"></path></svg>