<svg xmlns="http://www.w3.org/2000/svg" width="97" height="96" viewBox="0 0 97 96" fill="none"><path d="M95.1526 41.0844L89.3165 38.5578C89.0844 37.5393 88.8121 36.5217 88.5031 35.518L92.2926 30.4125C92.4559 30.1921 92.5512 29.9288 92.5667 29.6549C92.5822 29.381 92.5172 29.1086 92.3799 28.8712L86.7568 19.1288C86.6196 18.8911 86.4159 18.6987 86.1707 18.5754C85.9255 18.4522 85.6496 18.4033 85.377 18.435L79.0522 19.1689C78.3409 18.4035 77.5973 17.66 76.8319 16.9487L77.5659 10.6239C77.5976 10.3513 77.5487 10.0754 77.4254 9.8302C77.3021 9.58502 77.1098 9.38127 76.8721 9.2441L67.1288 3.61839C66.8914 3.48101 66.619 3.41607 66.3451 3.43158C66.0712 3.44709 65.8079 3.54236 65.5875 3.70567L60.4811 7.49686C59.4774 7.18791 58.4598 6.91562 57.4413 6.68347L54.9156 0.847434C54.8066 0.595641 54.6263 0.381243 54.397 0.230663C54.1676 0.0800827 53.8992 -9.8952e-05 53.6248 9.16463e-08H42.3752C42.1008 -9.8952e-05 41.8324 0.0800827 41.603 0.230663C41.3737 0.381243 41.1934 0.595641 41.0844 0.847434L38.5578 6.68347C37.5393 6.91562 36.5217 7.18791 35.518 7.49686L30.4125 3.70741C30.1921 3.54411 29.9288 3.44883 29.6549 3.43333C29.381 3.41782 29.1086 3.48276 28.8712 3.62014L19.1288 9.24322C18.8911 9.3804 18.6987 9.58414 18.5754 9.82933C18.4522 10.0745 18.4033 10.3504 18.435 10.623L19.1689 16.9478C18.4035 17.6591 17.66 18.4027 16.9487 19.1681L10.6239 18.4341C10.3513 18.4024 10.0754 18.4513 9.8302 18.5746C9.58502 18.6979 9.38127 18.8902 9.2441 19.1279L3.61839 28.8712C3.48101 29.1086 3.41607 29.381 3.43158 29.6549C3.44709 29.9288 3.54236 30.1921 3.70567 30.4125L7.49686 35.5206C7.18791 36.5243 6.91562 37.5419 6.68347 38.5604L0.847434 41.0844C0.595641 41.1934 0.381243 41.3737 0.230663 41.603C0.0800827 41.8324 -9.8952e-05 42.1008 9.16463e-08 42.3752V53.6248C-9.8952e-05 53.8992 0.0800827 54.1676 0.230663 54.397C0.381243 54.6263 0.595641 54.8066 0.847434 54.9156L6.68259 57.4422C6.91474 58.4607 7.18704 59.4783 7.49599 60.482L3.70654 65.5875C3.54324 65.8079 3.44796 66.0712 3.43245 66.3451C3.41695 66.619 3.48188 66.8914 3.61927 67.1288L9.24322 76.8712C9.3804 77.1089 9.58414 77.3013 9.82933 77.4246C10.0745 77.5478 10.3504 77.5967 10.623 77.565L16.9478 76.8311C17.6591 77.5965 18.4027 78.34 19.1681 79.0513L18.4341 85.3761C18.4024 85.6487 18.4513 85.9246 18.5746 86.1698C18.6979 86.415 18.8902 86.6187 19.1279 86.7559L28.8712 92.3807C29.1086 92.5181 29.381 92.583 29.6549 92.5675C29.9288 92.552 30.1921 92.4568 30.4125 92.2935L35.518 88.504C36.5217 88.813 37.5393 89.0853 38.5578 89.3174L41.0844 95.1526C41.1934 95.4044 41.3737 95.6188 41.603 95.7693C41.8324 95.9199 42.1008 96.0001 42.3752 96H53.6248C53.8992 96.0001 54.1676 95.9199 54.397 95.7693C54.6263 95.6188 54.8066 95.4044 54.9156 95.1526L57.4422 89.3174C58.4607 89.0853 59.4783 88.813 60.482 88.504L65.5875 92.2935C65.8079 92.4569 66.0712 92.5522 66.3451 92.5677C66.619 92.5832 66.8914 92.5182 67.1288 92.3807L76.8712 86.7568C77.1089 86.6196 77.3013 86.4159 77.4246 86.1707C77.5478 85.9255 77.5967 85.6496 77.565 85.377L76.8311 79.0522C77.5965 78.3409 78.34 77.5973 79.0513 76.8319L85.3761 77.5659C85.6487 77.5976 85.9246 77.5487 86.1698 77.4254C86.415 77.3021 86.6187 77.1098 86.7559 76.8721L92.3807 67.1288C92.5181 66.8914 92.583 66.619 92.5675 66.3451C92.552 66.0712 92.4568 65.8079 92.2935 65.5875L88.504 60.482C88.813 59.4783 89.0853 58.4607 89.3174 57.4422L95.1526 54.9156C95.4047 54.8069 95.6195 54.6267 95.7704 54.3973C95.9213 54.1679 96.0017 53.8994 96.0017 53.6248V42.3752C96.0017 42.1006 95.9213 41.8321 95.7704 41.6027C95.6195 41.3733 95.4047 41.1931 95.1526 41.0844V41.0844ZM93.188 52.7015L87.5388 55.1451C87.3321 55.2346 87.15 55.3724 87.0077 55.5469C86.8654 55.7214 86.767 55.9275 86.721 56.1479C86.4263 57.5533 86.0552 58.9416 85.6091 60.3065C85.5393 60.5202 85.5217 60.7475 85.5579 60.9694C85.594 61.1912 85.6828 61.4012 85.8168 61.5816L89.4824 66.5231L84.7809 74.6658L78.6586 73.9554C78.4352 73.9295 78.2089 73.9576 77.9986 74.0371C77.7883 74.1167 77.6002 74.2455 77.4498 74.4127C76.4918 75.4797 75.4771 76.4944 74.4101 77.4525C74.2427 77.6027 74.1139 77.7909 74.0343 78.0012C73.9547 78.2115 73.9268 78.4378 73.9528 78.6612L74.6632 84.7835L66.5205 89.485L61.579 85.8195C61.3986 85.6854 61.1886 85.5965 60.9668 85.5604C60.7449 85.5242 60.5176 85.5418 60.3039 85.6117C58.9399 86.0578 57.5525 86.429 56.1479 86.7236C55.9275 86.7697 55.7214 86.868 55.5469 87.0103C55.3724 87.1526 55.2346 87.3347 55.1451 87.5414L52.7015 93.1906H43.2985L40.8549 87.5414C40.7654 87.3347 40.6276 87.1526 40.4531 87.0103C40.2786 86.868 40.0725 86.7697 39.8521 86.7236C38.4472 86.428 37.0595 86.056 35.6952 85.6091C35.4815 85.5393 35.2542 85.5217 35.0324 85.5579C34.8105 85.594 34.6006 85.6828 34.4201 85.8168L29.4786 89.4824L21.336 84.7809L22.0464 78.6586C22.0723 78.4352 22.0443 78.2089 21.9647 77.9986C21.8851 77.7883 21.7563 77.6001 21.589 77.4498C20.5218 76.4915 19.5067 75.4765 18.5484 74.4092C18.3981 74.242 18.2099 74.1132 17.9996 74.0336C17.7893 73.9541 17.563 73.926 17.3397 73.9519L11.2174 74.6623L6.5159 66.5196L10.1814 61.5781C10.3154 61.3977 10.4043 61.1877 10.4404 60.9659C10.4765 60.744 10.459 60.5167 10.3891 60.3031C9.94307 58.939 9.57189 57.5516 9.27726 56.1471C9.23145 55.9277 9.13389 55.7225 8.9927 55.5486C8.85152 55.3746 8.6708 55.2369 8.46561 55.1469L2.81634 52.7032V43.2985L8.46561 40.8531C8.67225 40.7637 8.85439 40.6259 8.9967 40.4514C9.13901 40.2769 9.23732 40.0707 9.28337 39.8503C9.57671 38.4462 9.94642 37.0591 10.3909 35.6952C10.4607 35.4815 10.4783 35.2542 10.4421 35.0324C10.406 34.8105 10.3172 34.6006 10.1832 34.4201L6.51765 29.4786L11.2191 21.336L17.3414 22.0464C17.5648 22.0721 17.791 22.0441 18.0013 21.9645C18.2116 21.8849 18.3998 21.7562 18.5502 21.589C19.5082 20.522 20.5229 19.5073 21.5899 18.5493C21.7573 18.3991 21.8861 18.2109 21.9657 18.0006C22.0453 17.7902 22.0732 17.5639 22.0472 17.3405L21.3368 11.2182L29.4795 6.51677L34.421 10.1823C34.6014 10.3164 34.8114 10.4052 35.0332 10.4414C35.2551 10.4775 35.4824 10.4599 35.6961 10.39C37.0601 9.94406 38.4475 9.57288 39.8521 9.27813C40.0716 9.23236 40.2771 9.13472 40.4512 8.99338C40.6254 8.85203 40.7632 8.67107 40.8531 8.46561L43.2968 2.81721H52.7015L55.1451 8.46648C55.2346 8.67313 55.3724 8.85527 55.5469 8.99757C55.7214 9.13988 55.9275 9.23819 56.1479 9.28424C57.5532 9.57718 58.9415 9.94661 60.3065 10.3909C60.5202 10.4608 60.7475 10.4784 60.9694 10.4423C61.1912 10.4061 61.4012 10.3173 61.5816 10.1832L66.5231 6.51765L74.6658 11.2191L73.9554 17.3414C73.9295 17.5648 73.9575 17.7911 74.037 18.0014C74.1166 18.2117 74.2454 18.3999 74.4127 18.5502C75.4799 19.508 76.4946 20.5228 77.4525 21.5899C77.6027 21.7572 77.7909 21.886 78.0012 21.9656C78.2115 22.0452 78.4378 22.0732 78.6612 22.0472L84.7835 21.3368L89.485 29.4795L85.8195 34.421C85.6854 34.6014 85.5966 34.8114 85.5605 35.0333C85.5243 35.2551 85.5419 35.4824 85.6117 35.6961C86.0577 37.0601 86.4289 38.4475 86.7236 39.8521C86.7697 40.0725 86.868 40.2786 87.0103 40.4531C87.1526 40.6276 87.3347 40.7654 87.5414 40.8549L93.1898 43.2985L93.188 52.7015Z" fill="#36C5F1"></path><path d="M47.9999 11.25C39.2645 11.2516 30.8152 14.3642 24.1662 20.0298C23.8824 20.2718 23.7064 20.6166 23.6769 20.9884C23.6622 21.1725 23.684 21.3576 23.7409 21.5333C23.7979 21.709 23.8888 21.8717 24.0087 22.0122C24.1285 22.1527 24.2748 22.2683 24.4393 22.3522C24.6038 22.4362 24.7832 22.4869 24.9673 22.5016C25.339 22.5311 25.7073 22.4118 25.9911 22.1698C32.6645 16.4831 41.2796 13.5996 50.0317 14.1231C58.7837 14.6467 66.9936 18.5368 72.9415 24.9784C78.8894 31.4201 82.1137 39.9135 81.9391 48.6795C81.7645 57.4454 78.2045 65.8037 72.0048 72.0034C65.8051 78.2031 57.4468 81.7632 48.6808 81.9378C39.9149 82.1124 31.4214 78.888 24.9798 72.9402C18.5381 66.9923 14.648 58.7824 14.1245 50.0303C13.6009 41.2783 16.4845 32.6632 22.1711 25.9898C22.2908 25.8491 22.3817 25.6863 22.4384 25.5106C22.4952 25.3348 22.5168 25.1496 22.502 24.9656C22.4873 24.7815 22.4363 24.6021 22.3522 24.4377C22.2681 24.2733 22.1525 24.127 22.0118 24.0073C21.8712 23.8876 21.7084 23.7968 21.5326 23.74C21.3569 23.6832 21.1717 23.6616 20.9876 23.6764C20.8035 23.6912 20.6242 23.7421 20.4598 23.8262C20.2953 23.9103 20.1491 24.026 20.0294 24.1666C14.5972 30.5427 11.5063 38.5832 11.2687 46.9562C11.0311 55.3291 13.6611 63.532 18.7229 70.2059C23.7848 76.8798 30.9747 81.6241 39.1016 83.6529C47.2285 85.6818 55.8047 84.8734 63.4093 81.3616C71.0139 77.8498 77.1907 71.8455 80.9162 64.3433C84.6417 56.8411 85.6925 48.2912 83.8945 40.1101C82.0964 31.9291 77.5574 24.6078 71.0294 19.3591C64.5015 14.1104 56.3763 11.2494 47.9999 11.25Z" fill="#36C5F1"></path><path d="M48.0001 79.1243C54.156 79.1243 60.1736 77.2989 65.292 73.8789C70.4104 70.4589 74.3997 65.598 76.7555 59.9107C79.1112 54.2235 79.7277 47.9654 78.5268 41.9279C77.3259 35.8903 74.3617 30.3444 70.0089 25.9915C65.6561 21.6386 60.1103 18.6742 54.0728 17.4732C48.0353 16.2721 41.7771 16.8884 36.0898 19.244C30.4025 21.5996 25.5415 25.5888 22.1214 30.7071C18.7012 35.8254 16.8757 41.8429 16.8755 47.9988C16.8838 56.2511 20.1656 64.163 26.0008 69.9983C31.836 75.8337 39.7478 79.1157 48.0001 79.1243V79.1243ZM46.5941 32.3453C46.5941 32.0672 46.6766 31.7953 46.8311 31.5641C46.9856 31.3329 47.2052 31.1527 47.4621 31.0463C47.719 30.9399 48.0017 30.912 48.2744 30.9663C48.5472 31.0205 48.7977 31.1544 48.9943 31.3511C49.1909 31.5477 49.3248 31.7982 49.3791 32.071C49.4333 32.3437 49.4055 32.6264 49.2991 32.8833C49.1927 33.1402 49.0125 33.3598 48.7813 33.5143C48.55 33.6688 48.2782 33.7512 48.0001 33.7512C47.6269 33.7508 47.2692 33.6021 47.0055 33.338C46.7419 33.0739 46.5939 32.7158 46.5941 32.3426V32.3453ZM48.0001 19.6905C54.6418 19.6906 61.072 22.0256 66.1662 26.2871C71.2605 30.5486 74.6944 36.4654 75.8674 43.0027C77.0404 49.5399 75.8779 56.2815 72.5831 62.0483C69.2883 67.8152 64.0711 72.2401 57.8438 74.5494V65.4571L63.0567 60.2442C63.3204 59.9806 63.4686 59.623 63.4686 59.2502V51.9759C64.4069 51.6441 65.1977 50.9913 65.7012 50.1329C66.2047 49.2745 66.3886 48.2657 66.2203 47.2849C66.052 46.304 65.5423 45.4142 64.7814 44.7728C64.0205 44.1313 63.0574 43.7795 62.0622 43.7795C61.067 43.7795 60.1038 44.1313 59.343 44.7728C58.5821 45.4142 58.0724 46.304 57.9041 47.2849C57.7358 48.2657 57.9197 49.2745 58.4232 50.1329C58.9267 50.9913 59.7175 51.6441 60.6558 51.9759V58.6663L55.4429 63.8792C55.3123 64.01 55.2087 64.1653 55.1382 64.3362C55.0677 64.5071 55.0315 64.6902 55.0318 64.875V75.4282C53.1903 75.9001 51.3058 76.1846 49.407 76.2774V36.3197C50.3453 35.988 51.136 35.3352 51.6396 34.4768C52.1431 33.6184 52.3269 32.6096 52.1586 31.6287C51.9903 30.6479 51.4807 29.7581 50.7198 29.1166C49.9589 28.4752 48.9958 28.1234 48.0006 28.1234C47.0054 28.1234 46.0422 28.4752 45.2813 29.1166C44.5204 29.7581 44.0108 30.6479 43.8425 31.6287C43.6742 32.6096 43.858 33.6184 44.3616 34.4768C44.8651 35.3352 45.6559 35.988 46.5941 36.3197V76.2765C44.6954 76.1839 42.8108 75.8994 40.9693 75.4274V64.875C40.9692 64.5021 40.8211 64.1446 40.5574 63.881L35.3445 58.6681V51.9759C36.2827 51.6441 37.0735 50.9913 37.577 50.1329C38.0806 49.2745 38.2644 48.2657 38.0961 47.2849C37.9278 46.304 37.4182 45.4142 36.6573 44.7728C35.8964 44.1313 34.9332 43.7795 33.9381 43.7795C32.9429 43.7795 31.9797 44.1313 31.2188 44.7728C30.4579 45.4142 29.9483 46.304 29.78 47.2849C29.6117 48.2657 29.7955 49.2745 30.2991 50.1329C30.8026 50.9913 31.5934 51.6441 32.5316 51.9759V59.2493C32.5316 59.4339 32.568 59.6168 32.6387 59.7873C32.7094 59.9579 32.813 60.1129 32.9436 60.2434L38.1565 65.4563V74.545C31.9292 72.2358 26.7119 67.8108 23.4172 62.044C20.1224 56.2771 18.9599 49.5356 20.1329 42.9983C21.3059 36.4611 24.7398 30.5443 29.834 26.2827C34.9282 22.0212 41.3585 19.6862 48.0001 19.6861V19.6905ZM60.6549 48.0031C60.6549 47.7251 60.7374 47.4532 60.8919 47.222C61.0464 46.9908 61.2659 46.8106 61.5228 46.7042C61.7798 46.5978 62.0624 46.5699 62.3352 46.6242C62.6079 46.6784 62.8584 46.8123 63.0551 47.009C63.2517 47.2056 63.3856 47.4561 63.4399 47.7288C63.4941 48.0016 63.4663 48.2843 63.3599 48.5412C63.2534 48.7981 63.0732 49.0177 62.842 49.1722C62.6108 49.3267 62.339 49.4091 62.0609 49.4091C61.6877 49.4082 61.3301 49.2591 61.0668 48.9947C60.8035 48.7302 60.6559 48.372 60.6566 47.9988L60.6549 48.0031ZM32.5299 48.0031C32.5299 47.7251 32.6123 47.4532 32.7668 47.222C32.9213 46.9908 33.1409 46.8106 33.3978 46.7042C33.6547 46.5978 33.9374 46.5699 34.2102 46.6242C34.4829 46.6784 34.7334 46.8123 34.9301 47.009C35.1267 47.2056 35.2606 47.4561 35.3148 47.7288C35.3691 48.0016 35.3413 48.2843 35.2348 48.5412C35.1284 48.7981 34.9482 49.0177 34.717 49.1722C34.4858 49.3267 34.2139 49.4091 33.9359 49.4091C33.5627 49.4082 33.2051 49.2591 32.9418 48.9947C32.6785 48.7302 32.5309 48.372 32.5316 47.9988L32.5299 48.0031Z" fill="#36C5F1"></path></svg>