<svg xmlns="http://www.w3.org/2000/svg" width="79" height="88" viewBox="0 0 79 88" fill="none"><path d="M75.7955 31.7506H70.6207V31.1668C70.6207 29.7135 69.4438 28.5312 67.9972 28.5312H57.7911C57.0877 28.5312 56.5174 29.104 56.5174 29.8109C56.5174 30.5177 57.0877 31.0905 57.7911 31.0905H67.9972C68.0392 31.0905 68.0733 31.1246 68.0733 31.1668V46.7692C68.0733 47.476 68.6436 48.0488 69.347 48.0488C70.0504 48.0488 70.6207 47.476 70.6207 46.7692V34.3099H75.7955C75.9677 34.3099 76.1078 34.4506 76.1078 34.6236V79.2669C76.1078 82.1952 73.7365 84.5776 70.8218 84.5776H7.83342C4.91869 84.5776 2.5474 82.1952 2.5474 79.2669V34.6236C2.5474 34.4506 2.68751 34.3099 2.85971 34.3099H8.20432V78.0754C8.20432 79.8798 9.66551 81.348 11.4618 81.348H67.3631C69.1593 81.348 70.6205 79.88 70.6205 78.0754V52.227C70.6205 51.5202 70.0502 50.9474 69.3468 50.9474C68.6434 50.9474 68.0731 51.5202 68.0731 52.227V70.6419H47.4657C44.7967 70.6419 42.3879 71.7758 40.6862 73.5871V57.0347C40.6862 56.3278 40.1159 55.7551 39.4125 55.7551C38.7091 55.7551 38.1388 56.3278 38.1388 57.0347V73.5873C36.4371 71.776 34.0282 70.6421 31.3593 70.6421H25.5716C24.8682 70.6421 24.2979 71.2148 24.2979 71.9217C24.2979 72.6286 24.8682 73.2013 25.5716 73.2013H31.3593C34.6816 73.2013 37.4515 75.6154 38.0272 78.7887H11.4618C11.0701 78.7887 10.7517 78.4688 10.7517 78.0754V73.2013H20.1389C20.8423 73.2013 21.4126 72.6286 21.4126 71.9217C21.4126 71.2148 20.8423 70.6421 20.1389 70.6421H10.7517V31.1668C10.7517 31.1246 10.7859 31.0905 10.8278 31.0905H21.0339C21.7373 31.0905 22.3076 30.5177 22.3076 29.8109C22.3076 29.104 21.7373 28.5312 21.0339 28.5312H10.8278C9.38122 28.5312 8.20432 29.7136 8.20432 31.1668V31.7506H2.85971C1.28287 31.7506 0 33.0395 0 34.6236V79.2669C0 83.6064 3.51405 87.1368 7.83342 87.1368H70.8214C75.1408 87.1368 78.6549 83.6064 78.6549 79.2669V34.6236C78.655 33.0395 77.3723 31.7506 75.7955 31.7506V31.7506ZM47.4657 73.2012H68.0731V78.0754C68.0731 78.4688 67.7547 78.7887 67.3631 78.7887H40.798C41.3735 75.6152 44.1434 73.2012 47.4657 73.2012V73.2012Z" fill="#FF9914"></path><path d="M22.7423 17.9466C23.4394 18.0117 24.06 17.4965 24.1259 16.7932C24.4891 12.9143 26.2674 9.32299 29.1338 6.68091C32.018 4.02246 35.7614 2.55817 39.6746 2.55817C48.2872 2.55817 55.294 9.6153 55.294 18.2895C55.294 21.5536 54.3104 24.6838 52.4496 27.3422C52.4391 27.3572 52.429 27.3726 52.419 27.3879L44.2922 40.1307C44.1606 40.337 44.0907 40.5768 44.0907 40.8221V42.4791C44.0907 42.8154 43.8191 43.0889 43.4852 43.0889H43.4022L44.2112 29.262H45.658C47.7282 29.262 49.4124 27.5658 49.4124 25.4809V25.3257C49.4124 23.2408 47.7282 21.5446 45.658 21.5446C43.6733 21.5446 42.0271 23.1078 41.9102 25.1033L41.8166 26.7039H37.363L37.2694 25.1033C37.1527 23.1078 35.5063 21.5446 33.5216 21.5446C31.4514 21.5446 29.7673 23.2408 29.7673 25.3257V25.4809C29.7673 27.5658 31.4514 29.262 33.5216 29.262H34.9684L35.7769 43.0801C35.4845 43.0371 35.2584 42.7854 35.2584 42.4791V40.8221C35.2584 40.5768 35.1885 40.337 35.0571 40.1307L26.9301 27.3879C26.9203 27.3726 26.9102 27.3572 26.8997 27.3422C25.7311 25.6726 24.9082 23.8172 24.4542 21.8275C24.2969 21.139 23.6145 20.7094 22.9319 20.8675C22.2484 21.0259 21.8216 21.7122 21.9788 22.4007C22.5051 24.7063 23.4569 26.8568 24.8078 28.793L32.7188 41.1971V42.4787C32.7188 43.7703 33.4912 44.882 34.5943 45.3747V47.5378C34.5943 49.8138 36.4327 51.6654 38.6926 51.6654H40.6575C42.9172 51.6654 44.7558 49.8138 44.7558 47.5378V45.3747C45.8588 44.882 46.6313 43.7704 46.6313 42.4787V41.1971L54.5422 28.793C56.6961 25.706 57.8345 22.0744 57.8345 18.2894C57.8338 8.20456 49.6875 0 39.6746 0C35.125 0 30.7726 1.70255 27.419 4.79384C24.0871 7.86534 22.0196 12.0413 21.5973 16.5531C21.5312 17.2565 22.044 17.8804 22.7423 17.9466V17.9466ZM44.4458 25.2537C44.4835 24.6082 45.0161 24.1025 45.658 24.1025C46.3277 24.1025 46.8724 24.6512 46.8724 25.3255V25.4807C46.8724 26.1551 46.3277 26.7037 45.658 26.7037H44.3609L44.4458 25.2537ZM33.5216 26.7037C32.8519 26.7037 32.3072 26.1551 32.3072 25.4807V25.3255C32.3072 24.6512 32.8519 24.1025 33.5216 24.1025C34.1637 24.1025 34.6961 24.6082 34.7339 25.2537L34.8187 26.7037H33.5216ZM41.6669 29.2619L40.858 43.0888H38.3218L37.5129 29.2619H41.6669ZM42.2152 47.5379C42.2152 48.4033 41.5162 49.1074 40.6568 49.1074H38.6919C37.8328 49.1074 37.1336 48.4033 37.1336 47.5379V45.6469H42.215V47.5379H42.2152Z" fill="#FF9914"></path><path d="M62.0258 10.0229C62.2849 10.0229 62.5452 9.91003 62.7552 9.68027L65.1693 7.03936C65.6285 6.5372 65.6738 5.66596 65.2708 5.09396C64.8677 4.52196 64.1686 4.46535 63.7094 4.9675L61.2954 7.60842C60.8361 8.11057 60.7909 8.98181 61.1939 9.55381C61.4127 9.86426 61.7185 10.0229 62.0258 10.0229Z" fill="#FF9914"></path><path d="M61.2953 17.4914L63.7093 19.755C63.9193 19.9521 64.1795 20.0486 64.4389 20.0486C64.7461 20.0486 65.0519 19.9127 65.2707 19.6466C65.6739 19.1563 65.6284 18.4098 65.1694 17.9792L62.7554 15.7156C62.2962 15.2849 61.5973 15.3336 61.1941 15.824C60.7908 16.3142 60.8361 17.0606 61.2953 17.4914Z" fill="#FF9914"></path><path d="M13.5484 7.03947L16.3647 9.68028C16.6097 9.91021 16.9133 10.0229 17.2157 10.0229C17.5742 10.0229 17.931 9.86426 18.1862 9.55383C18.6565 8.98185 18.6035 8.11065 18.0678 7.60851L15.2515 4.9677C14.7159 4.4652 13.9001 4.52199 13.43 5.09415C12.9596 5.66613 13.0126 6.53715 13.5484 7.03947V7.03947Z" fill="#FF9914"></path><path d="M14.4003 20.0486C14.7027 20.0486 15.0063 19.9519 15.2516 19.755L18.0679 17.4913C18.6035 17.0607 18.6565 16.3141 18.1862 15.8238C17.716 15.3336 16.9004 15.285 16.3646 15.7154L13.5482 17.9792C13.0126 18.4097 12.9596 19.1563 13.43 19.6466C13.685 19.9127 14.0416 20.0486 14.4003 20.0486V20.0486Z" fill="#FF9914"></path><path d="M28.5317 44.3403C28.5317 43.7013 27.949 43.1836 27.2302 43.1836H14.4106C13.6918 43.1836 13.1091 43.7013 13.1091 44.3403C13.1091 44.9792 13.6918 45.497 14.4106 45.497H27.2302C27.949 45.497 28.5317 44.9792 28.5317 44.3403Z" fill="#FF9914"></path><path d="M31.0909 49.3516H16.7181C16.0024 49.3516 15.4221 50.0419 15.4221 50.8938C15.4221 51.7458 16.0024 52.4361 16.7181 52.4361H31.0909C31.8066 52.4361 32.3869 51.7458 32.3869 50.8938C32.3869 50.0419 31.8066 49.3516 31.0909 49.3516Z" fill="#FF9914"></path><path d="M31.0909 55.5234H16.7181C16.0024 55.5234 15.4221 56.2137 15.4221 57.0657C15.4221 57.9176 16.0024 58.6079 16.7181 58.6079H31.0909C31.8066 58.6079 32.3869 57.9176 32.3869 57.0657C32.3869 56.2137 31.8066 55.5234 31.0909 55.5234Z" fill="#FF9914"></path><path d="M31.0909 62.4609H16.7181C16.0024 62.4609 15.4221 62.9787 15.4221 63.6176C15.4221 64.2566 16.0024 64.7743 16.7181 64.7743H31.0909C31.8066 64.7743 32.3869 64.2566 32.3869 63.6176C32.3869 62.9787 31.8066 62.4609 31.0909 62.4609Z" fill="#FF9914"></path><path d="M65.5459 44.3403C65.5459 43.7013 64.9924 43.1836 64.3096 43.1836H52.1309C51.4481 43.1836 50.8945 43.7013 50.8945 44.3403C50.8945 44.9792 51.4481 45.497 52.1309 45.497H64.3096C64.9924 45.497 65.5459 44.9792 65.5459 44.3403Z" fill="#FF9914"></path><path d="M62.7079 49.3516H48.335C47.6193 49.3516 47.0391 50.0419 47.0391 50.8938C47.0391 51.7458 47.6193 52.4361 48.335 52.4361H62.7079C63.4236 52.4361 64.0038 51.7458 64.0038 50.8938C64.0038 50.0419 63.4236 49.3516 62.7079 49.3516Z" fill="#FF9914"></path><path d="M62.7079 55.5234H48.335C47.6193 55.5234 47.0391 56.2137 47.0391 57.0657C47.0391 57.9176 47.6193 58.6079 48.335 58.6079H62.7079C63.4236 58.6079 64.0038 57.9176 64.0038 57.0657C64.0038 56.2137 63.4236 55.5234 62.7079 55.5234Z" fill="#FF9914"></path><path d="M62.7079 62.4609H48.335C47.6193 62.4609 47.0391 62.9787 47.0391 63.6176C47.0391 64.2566 47.6193 64.7743 48.335 64.7743H62.7079C63.4236 64.7743 64.0038 64.2566 64.0038 63.6176C64.0038 62.9787 63.4236 62.4609 62.7079 62.4609Z" fill="#FF9914"></path></svg>