<svg xmlns="http://www.w3.org/2000/svg" width="87" height="87" viewBox="0 0 87 87" fill="none"><g clip-path="url(#clip0)"><path d="M36.2503 36.2468C36.2503 35.8623 36.0975 35.4936 35.8255 35.2217C35.5536 34.9496 35.1849 34.7969 34.8003 34.7969C34.4158 34.7969 34.0471 34.9496 33.7752 35.2217L26.5251 42.4717C26.2531 42.7436 26.1003 43.1123 26.1003 43.4969C26.1003 43.8814 26.2531 44.2503 26.5251 44.522L33.7752 51.7721C34.3414 52.3382 35.2595 52.3382 35.8257 51.7721C36.3918 51.2059 36.3918 50.288 35.8257 49.7216L29.6007 43.4969L35.8257 37.272C36.0975 37.0003 36.2503 36.6313 36.2503 36.2468Z" fill="#36C5F1"></path><path d="M53.2252 35.224C52.6575 34.6665 51.7467 34.6707 51.1841 35.2332C50.6215 35.7958 50.6174 36.7066 51.175 37.2743L57.3997 43.4992L51.1748 49.7241C50.8047 50.0896 50.6587 50.6254 50.7923 51.128C50.9259 51.6306 51.3185 52.0233 51.8212 52.1569C52.3238 52.2904 52.8596 52.1445 53.2251 51.7744L60.4751 44.5243C60.7472 44.2525 60.8999 43.8837 60.8999 43.4992C60.8999 43.1147 60.7472 42.7459 60.4751 42.4741L53.2252 35.224Z" fill="#36C5F1"></path><path d="M46.7988 31.9532C46.0288 31.7366 45.2283 32.1818 45.0061 32.9501L39.2061 53.2502C38.9866 54.0201 39.4321 54.8223 40.2015 55.0429C40.3315 55.0792 40.4659 55.0978 40.6009 55.0981C41.2481 55.0976 41.8165 54.6684 41.9942 54.0459L47.7942 33.7459C48.0139 32.9761 47.5683 32.1739 46.7988 31.9532Z" fill="#36C5F1"></path><path d="M43.5001 15.9492C28.2847 15.9492 15.9502 28.2838 15.9502 43.4992C15.9502 58.7145 28.2847 71.0491 43.5001 71.0491C58.7156 71.0491 71.0501 58.7145 71.0501 43.4992C71.0329 28.2908 58.7085 15.9664 43.5001 15.9492ZM43.5001 68.1492C29.8863 68.1492 18.8501 57.113 18.8501 43.4992C18.8501 29.8854 29.8863 18.8491 43.5001 18.8491C57.1139 18.8491 68.1502 29.8854 68.1502 43.4992C68.1349 57.1067 57.1077 68.1339 43.5001 68.1492Z" fill="#36C5F1"></path><path d="M86.7594 38.9045C86.7013 38.3718 86.3542 37.9144 85.8566 37.7151L77.0312 34.182C76.2725 31.4633 75.1845 28.8473 73.7913 26.3925L77.5401 17.6373C77.7512 17.145 77.6732 16.5764 77.3376 16.1589C75.4046 13.7729 73.2274 11.5955 70.8417 9.66231C70.4238 9.32638 69.8546 9.24838 69.362 9.45976L60.6061 13.2081C58.1517 11.8144 55.5359 10.7264 52.8174 9.96817L49.283 1.14209C49.0838 0.644896 48.6267 0.298085 48.0942 0.239972C45.0397 -0.0799907 41.9602 -0.0799907 38.9057 0.239972C38.3733 0.297916 37.9162 0.644896 37.7169 1.14192L34.1825 9.968C31.4638 10.7262 28.8482 11.8142 26.3938 13.2079L17.6381 9.45976C17.1453 9.24804 16.5761 9.32604 16.1584 9.66231C13.773 11.5962 11.596 13.7736 9.66247 16.1589C9.32687 16.5764 9.24905 17.145 9.45992 17.6373L13.2089 26.3925C11.8157 28.8473 10.7277 31.4633 9.96901 34.182L1.14361 37.7149C0.646245 37.9144 0.299094 38.3716 0.240981 38.9043C-0.0800015 41.9592 -0.0800015 45.0394 0.240981 48.0942C0.299264 48.6269 0.646245 49.0844 1.14361 49.2837L9.96901 52.8167C10.7277 55.5354 11.8157 58.1514 13.2089 60.6063L9.45992 69.3615C9.24888 69.8537 9.32687 70.4223 9.66247 70.8398C11.5955 73.2258 13.7727 75.4032 16.1584 77.3364C16.5764 77.672 17.1453 77.7498 17.6381 77.539L26.394 73.7907C28.8483 75.1844 31.4641 76.2724 34.1827 77.0306L37.7171 85.8566C37.9162 86.3538 38.3733 86.7006 38.9059 86.7586C41.9604 87.0796 45.04 87.0796 48.0944 86.7586C48.6267 86.7006 49.0838 86.3538 49.2832 85.8566L52.8175 77.0306C55.5363 76.2724 58.1519 75.1844 60.6062 73.7907L69.3621 77.539C69.8549 77.7497 70.4238 77.6719 70.8418 77.3364C73.2272 75.4025 75.4042 73.2252 77.3378 70.8398C77.6734 70.4223 77.7512 69.8537 77.5403 69.3615L73.7915 60.6063C75.1847 58.1514 76.2727 55.5354 77.0312 52.8167L85.8566 49.2837C86.354 49.0844 86.7011 48.6271 86.7594 48.0942C87.0804 45.0395 87.0804 41.9594 86.7594 38.9045ZM83.96 46.919L75.279 50.3939C74.8491 50.5662 74.5274 50.9336 74.4131 51.3824C73.6588 54.3295 72.4841 57.1528 70.9254 59.7651C70.6886 60.1638 70.6561 60.6515 70.8384 61.0778L74.5273 69.6915C73.8158 70.5339 73.0382 71.3779 72.2078 72.2077C71.3844 73.0318 70.5404 73.8092 69.6923 74.5257L61.0786 70.8384C60.6526 70.6546 60.1643 70.6867 59.766 70.9248C57.1536 72.4836 54.3303 73.6583 51.3832 74.4124C50.9348 74.5268 50.5679 74.8481 50.3955 75.2777L46.9192 83.9593C44.6438 84.1462 42.3568 84.1462 40.0812 83.9593L36.6048 75.2777C36.4325 74.8483 36.0654 74.5268 35.6172 74.4124C32.6701 73.6583 29.8468 72.4836 27.2344 70.9248C26.8361 70.6867 26.3478 70.6546 25.9218 70.8384L17.3081 74.5257C16.4599 73.8092 15.616 73.0318 14.7919 72.2077C13.9622 71.3779 13.1848 70.5339 12.4731 69.6915L16.162 61.0778C16.3441 60.6515 16.3119 60.1638 16.0748 59.7651C14.5161 57.1526 13.3414 54.3295 12.5872 51.3824C12.4728 50.9336 12.1511 50.5664 11.7212 50.3939L3.04027 46.919C2.9475 45.8174 2.90009 44.6718 2.90009 43.4994C2.90009 42.3269 2.9475 41.1813 3.04027 40.0797L11.7212 36.6048C12.1511 36.4325 12.4728 36.0651 12.5872 35.6163C13.3414 32.6692 14.5161 29.846 16.0748 27.2336C16.3117 26.8351 16.344 26.3473 16.162 25.9209L12.4731 17.3073C13.1846 16.4648 13.9622 15.6208 14.7926 14.7911C15.616 13.9669 16.46 13.1895 17.3081 12.473L25.9218 16.1603C26.3478 16.344 26.8361 16.3119 27.2344 16.074C29.8468 14.5151 32.6701 13.3404 35.6172 12.5863C36.0656 12.472 36.4325 12.1505 36.6048 11.7211L40.081 3.03944C42.3565 2.85252 44.6434 2.85252 46.919 3.03944L50.3955 11.7209C50.5678 12.1503 50.9348 12.4718 51.3832 12.5862C54.3303 13.3403 57.1536 14.5149 59.766 16.0738C60.1643 16.3119 60.6526 16.344 61.0786 16.1601L69.6923 12.4728C70.5406 13.1894 71.3844 13.9668 72.2085 14.7909C73.0382 15.6206 73.8156 16.4646 74.5273 17.3071L70.8386 25.9208C70.6564 26.3471 70.6887 26.8348 70.9256 27.2334C72.4843 29.846 73.659 32.6691 74.4132 35.6162C74.5276 36.0649 74.8493 36.4321 75.2792 36.6046L83.9601 40.0795C84.0529 41.1811 84.1003 42.3267 84.1003 43.4992C84.1001 44.6718 84.0527 45.8174 83.96 46.919Z" fill="#36C5F1"></path></g><defs><clipPath id="clip0"><rect width="87" height="87" fill="white"></rect></clipPath></defs></svg>