<svg xmlns="http://www.w3.org/2000/svg" width="96" height="96" viewBox="0 0 96 96" fill="none"><path d="M47.4938 17.5268C39.766 17.6551 32.371 20.6943 26.7861 26.037C21.1126 31.4271 17.9194 38.4499 17.7951 45.8104C17.7347 49.5595 18.429 53.2825 19.8366 56.7579C21.2443 60.2333 23.3365 63.3901 25.9889 66.0405C30.3951 70.4267 32.6796 76.503 32.2392 82.503H30.5586C30.1608 82.503 29.7793 82.661 29.498 82.9423C29.2167 83.2237 29.0586 83.6052 29.0586 84.003C29.0586 84.4008 29.2167 84.7824 29.498 85.0637C29.7793 85.345 30.1608 85.503 30.5586 85.503H33.9376V93.5576C33.944 93.9591 34.1078 94.3419 34.3937 94.6237C34.6796 94.9056 35.0648 95.0639 35.4663 95.0646H60.5339C60.9355 95.0639 61.3208 94.9054 61.6068 94.6234C61.8927 94.3414 62.0564 93.9583 62.0626 93.5567V85.5021H65.4419C65.8397 85.5021 66.2212 85.344 66.5026 85.0627C66.7839 84.7814 66.9419 84.3999 66.9419 84.0021C66.9419 83.6042 66.7839 83.2227 66.5026 82.9414C66.2212 82.6601 65.8397 82.5021 65.4419 82.5021H63.4083C62.914 76.3146 65.099 70.8009 69.7711 66.156C69.776 66.1513 69.7806 66.1271 69.7853 66.1223C75.1383 60.6551 78.0863 53.6119 78.0863 46.3074C78.0863 38.8013 75.0698 31.6892 69.5926 26.2899C63.74 20.5211 55.8897 17.4073 47.4938 17.5268ZM59.0626 92.0646H36.9376V85.5021H59.0626V92.0646ZM67.6488 64.0356C62.4691 69.1896 59.9322 75.5646 60.4028 82.5021H35.2444C35.6757 75.5646 33.0766 68.8622 28.1033 63.9128C25.7376 61.5515 23.8712 58.7383 22.6156 55.6406C21.3599 52.543 20.7406 49.2242 20.7946 45.8822C20.9054 39.3311 23.767 33.0529 28.8524 28.2216C33.8908 23.3972 40.5636 20.6509 47.5383 20.5313C55.1241 20.4206 62.2103 23.2236 67.4862 28.425C72.3873 33.2559 75.0863 39.6225 75.0863 46.3189C75.0863 52.8302 72.445 59.1336 67.6488 64.0356Z" fill="#C66BD6"></path><path d="M47.25 11.4721C47.6478 11.4721 48.0294 11.3141 48.3107 11.0328C48.592 10.7515 48.75 10.37 48.75 9.97213V2.44531C48.75 2.04749 48.592 1.66596 48.3107 1.38465C48.0294 1.10335 47.6478 0.945313 47.25 0.945312C46.8522 0.945313 46.4706 1.10335 46.1893 1.38465C45.908 1.66596 45.75 2.04749 45.75 2.44531V9.97213C45.75 10.37 45.908 10.7515 46.1893 11.0328C46.4706 11.3141 46.8522 11.4721 47.25 11.4721Z" fill="#C66BD6"></path><path d="M82.3263 17.0048L75.4803 22.9544C75.18 23.2154 74.9957 23.5851 74.968 23.982C74.9403 24.379 75.0714 24.7707 75.3324 25.071C75.5935 25.3712 75.9632 25.5555 76.3601 25.5832C76.7571 25.611 77.1488 25.4799 77.449 25.2188L84.295 19.2692C84.4437 19.14 84.5655 18.9827 84.6534 18.8064C84.7413 18.63 84.7936 18.4381 84.8073 18.2416C84.8211 18.045 84.7959 17.8477 84.7334 17.6609C84.6709 17.474 84.5722 17.3013 84.4429 17.1526C84.3136 17.004 84.1563 16.8822 83.98 16.7943C83.8037 16.7064 83.6118 16.6541 83.4152 16.6404C83.2187 16.6266 83.0213 16.6518 82.8345 16.7143C82.6477 16.7768 82.475 16.8755 82.3263 17.0048V17.0048Z" fill="#C66BD6"></path><path d="M19.1722 24.5508C19.472 24.5509 19.7649 24.4611 20.0131 24.2931C20.2614 24.1251 20.4536 23.8866 20.565 23.6083C20.6764 23.33 20.7019 23.0247 20.6382 22.7318C20.5744 22.4389 20.4244 22.1718 20.2074 21.965L13.7249 15.7854C13.5824 15.6495 13.4144 15.543 13.2307 15.4719C13.0469 15.4009 12.851 15.3668 12.6541 15.3715C12.4572 15.3762 12.2631 15.4197 12.0829 15.4994C11.9028 15.5791 11.7401 15.6935 11.6042 15.8361C11.4683 15.9787 11.3618 16.1466 11.2908 16.3304C11.2198 16.5141 11.1857 16.71 11.1904 16.907C11.1951 17.1039 11.2385 17.298 11.3182 17.4781C11.398 17.6582 11.5124 17.8209 11.6549 17.9568L18.1374 24.1364C18.416 24.4028 18.7867 24.5513 19.1722 24.5508V24.5508Z" fill="#C66BD6"></path><path d="M65.472 46.4019C68.1118 42.084 68.5722 38.2566 66.7682 35.6248C64.9643 32.9931 61.2287 32.0422 56.2495 32.9471C56.1932 32.9572 56.137 32.9702 56.0818 32.9807C56.0592 32.9289 56.0378 32.8747 56.0147 32.8234C53.9457 28.2047 51.049 25.6609 47.8585 25.6609C47.6517 25.6619 47.4452 25.6739 47.2397 25.6967C46.3719 24.9212 45.2503 24.49 44.0865 24.4844C42.9226 24.4789 41.797 24.8993 40.9218 25.6664C40.0465 26.4336 39.4822 27.4944 39.3352 28.6489C39.1882 29.8035 39.4687 30.9719 40.1237 31.9339C39.9541 32.2721 39.7904 32.6209 39.6327 32.9803C39.5775 32.97 39.5215 32.9571 39.4667 32.9471C34.4873 32.0424 30.7514 32.9934 28.948 35.6248C27.1446 38.2562 27.6044 42.084 30.2442 46.4019C30.6897 47.1307 31.1905 47.8616 31.74 48.5904C31.6977 48.6464 31.6556 48.7027 31.6138 48.7592C30.5368 48.5263 29.4124 48.6738 28.4318 49.1764C27.4512 49.6791 26.675 50.5059 26.2352 51.5163C25.7955 52.5266 25.7193 53.6581 26.0196 54.7183C26.3199 55.7785 26.9783 56.7019 27.8826 57.3315C27.7889 58.9431 28.1487 60.3859 28.9472 61.5502C30.3062 63.5329 32.7615 64.5615 36.0192 64.5615C37.1759 64.5535 38.3297 64.442 39.4665 64.2281C39.5219 64.218 39.579 64.2051 39.6342 64.1946C39.6569 64.2463 39.6782 64.3003 39.7013 64.3517C41.7704 68.9706 44.667 71.5142 47.8575 71.5142C51.048 71.5142 53.9447 68.9704 56.0138 64.3517C56.0367 64.3003 56.058 64.2463 56.0809 64.1946C56.1372 64.2051 56.1934 64.218 56.2485 64.2281C57.3853 64.442 58.539 64.5536 59.6957 64.5615C62.953 64.5615 65.409 63.5327 66.7678 61.5502C67.5366 60.4297 67.8988 59.0497 67.8407 57.5113C68.8291 56.9202 69.5702 55.9913 69.9269 54.8962C70.2837 53.8012 70.232 52.614 69.7814 51.5541C69.3309 50.4942 68.5119 49.6332 67.4759 49.1302C66.4399 48.6272 65.2568 48.5162 64.1453 48.8177C64.089 48.7416 64.0328 48.6654 63.9765 48.5895C64.5261 47.8611 65.0267 47.1304 65.472 46.4019ZM54.2142 60.6566C53.1962 60.354 52.1941 60.0004 51.2117 59.5971C52.193 59.0211 53.1668 58.4027 54.1332 57.7421C54.4799 57.5046 54.8217 57.2634 55.1584 57.0186C54.9146 58.2485 54.5993 59.4633 54.2142 60.6566ZM41.4968 60.6542C41.1136 59.4617 40.8 58.2479 40.5578 57.0189C40.8953 57.2629 41.2369 57.504 41.5827 57.7421C42.5464 58.4027 43.52 59.0209 44.5035 59.5967C43.5197 59.9994 42.5161 60.3523 41.4968 60.6542V60.6542ZM36.7761 49.8418C36.372 49.4272 35.9845 49.0102 35.6136 48.5908C35.9836 48.1722 36.3704 47.7559 36.7739 47.3419C36.7635 47.7551 36.7582 48.1704 36.7581 48.5876C36.759 49.0076 36.7658 49.4254 36.7761 49.8418V49.8418ZM43.279 55.2677C42.1088 54.4656 40.9949 53.6242 39.946 52.7563C39.8232 51.4007 39.7585 50.0062 39.7585 48.5876C39.7585 47.169 39.8219 45.7776 39.9439 44.4251C40.9975 43.5512 42.1124 42.7065 43.2782 41.9072C44.7485 40.8969 46.2771 39.9742 47.856 39.144C49.4357 39.9745 50.9651 40.8972 52.4365 41.9072C53.6025 42.7067 54.7168 43.5508 55.7697 44.4238C55.8923 45.7777 55.956 47.1705 55.956 48.5863C55.956 50.0325 55.891 51.4245 55.7704 52.7541C54.7213 53.6224 53.6069 54.4639 52.4365 55.2666C50.9665 56.2769 49.4382 57.1997 47.8596 58.0303C46.2799 57.1999 44.7504 56.2775 43.279 55.2677V55.2677ZM41.4938 36.5158C42.5147 36.8191 43.5197 37.1736 44.5048 37.5782C43.5237 38.1542 42.5499 38.7725 41.5834 39.4331C41.2352 39.6718 40.8927 39.9156 40.5522 40.1616C40.7946 38.929 41.109 37.7116 41.4938 36.5158V36.5158ZM54.22 36.5222C54.6031 37.7147 54.9166 38.9285 55.1588 40.1574C54.8213 39.9128 54.4796 39.6714 54.1337 39.4331C53.1704 38.7726 52.1942 38.1546 51.2134 37.5787C52.197 37.1764 53.2002 36.8237 54.2192 36.5222H54.22ZM58.9405 47.3396C59.3443 47.754 59.7319 48.1709 60.103 48.5902C59.7325 49.0099 59.345 49.4271 58.9405 49.8418C58.9508 49.4254 58.9575 49.0076 58.9575 48.5876C58.9575 48.1676 58.95 47.7538 58.9397 47.3396H58.9405ZM64.2938 37.3211C65.3732 38.8961 64.8698 41.6355 62.9125 44.8372C62.6321 45.2956 62.3277 45.7551 61.9992 46.2157C60.9379 45.0539 59.8119 43.9529 58.6266 42.918C58.3549 40.52 57.8606 38.1524 57.15 35.8461C60.649 35.2834 63.2638 35.8185 64.2938 37.3211ZM53.1233 33.7166C51.3184 34.2743 49.5583 34.9676 47.8579 35.7906C46.4138 35.0935 44.9275 34.4877 43.4076 33.9767C44.0832 34.0718 44.7713 34.0207 45.4254 33.8269C46.0795 33.633 46.6844 33.301 47.1991 32.8532C47.7138 32.4054 48.1263 31.8524 48.4088 31.2314C48.6913 30.6104 48.8371 29.936 48.8365 29.2537C48.8365 29.1086 48.8288 28.9654 48.8162 28.8236C50.3504 29.3368 51.8727 31.0532 53.1233 33.7166V33.7166ZM44.067 27.4841C44.417 27.4841 44.7592 27.5878 45.0502 27.7823C45.3413 27.9767 45.5681 28.253 45.7021 28.5764C45.8361 28.8998 45.8711 29.2556 45.8029 29.5989C45.7346 29.9421 45.5661 30.2575 45.3186 30.505C45.0711 30.7525 44.7558 30.9211 44.4125 30.9893C44.0693 31.0576 43.7134 31.0226 43.3901 30.8887C43.0667 30.7547 42.7903 30.5279 42.5958 30.2369C42.4014 29.9459 42.2976 29.6037 42.2976 29.2537C42.2981 28.7846 42.4847 28.3349 42.8164 28.0032C43.1481 27.6714 43.5977 27.4848 44.0669 27.4841H44.067ZM32.8035 44.8372C30.8462 41.6355 30.3428 38.8959 31.4222 37.3211C32.4655 35.7992 35.0597 35.2674 38.566 35.8389C37.8549 38.1484 37.36 40.5189 37.0875 42.9199C35.9029 43.9543 34.7773 45.0546 33.7161 46.2154C33.3887 45.7552 33.0845 45.2959 32.8034 44.8372H32.8035ZM30.6098 51.6516C30.9598 51.6515 31.302 51.7553 31.593 51.9497C31.884 52.1441 32.1109 52.4205 32.2448 52.7438C32.3788 53.0672 32.4139 53.423 32.3456 53.7663C32.2774 54.1096 32.1088 54.4249 31.8614 54.6724C31.6139 54.9199 31.2986 55.0885 30.9553 55.1568C30.612 55.2251 30.2562 55.19 29.9328 55.0561C29.6094 54.9222 29.3331 54.6954 29.1386 54.4044C28.9441 54.1133 28.8404 53.7712 28.8404 53.4212C28.8409 52.9522 29.0274 52.5025 29.3589 52.1708C29.6905 51.8391 30.14 51.6523 30.609 51.6516H30.6098ZM36.027 61.5495C33.8145 61.5495 32.1848 60.9658 31.4228 59.8541C31.0954 59.3556 30.9081 58.7782 30.8805 58.1824C31.5515 58.145 32.207 57.9661 32.8039 57.6575C33.4009 57.3488 33.9257 56.9173 34.344 56.3913C34.7624 55.8654 35.0647 55.2569 35.2311 54.6058C35.3975 53.9547 35.4243 53.2758 35.3097 52.6136C35.8787 53.1705 36.4724 53.7197 37.0909 54.2612C37.3626 56.6582 37.8569 59.0246 38.5675 61.3299C37.7276 61.4704 36.8778 61.5438 36.0263 61.5495H36.027ZM47.8583 68.5144C46.012 68.5144 44.1042 66.6769 42.5929 63.4586C44.3978 62.901 46.158 62.2076 47.8583 61.3845C49.5558 62.2062 51.3129 62.8987 53.1147 63.456C51.6 66.6615 49.6799 68.5144 47.8579 68.5144H47.8583ZM57.148 61.3359C57.8594 59.0288 58.3543 56.6605 58.6264 54.2616C59.3744 53.6074 60.0889 52.9404 60.7639 52.2634C60.5991 52.9213 60.5766 53.6069 60.6979 54.2742C60.8191 54.9416 61.0814 55.5754 61.4671 56.1333C61.8529 56.6912 62.3532 57.1604 62.9348 57.5095C63.5163 57.8586 64.1656 58.0796 64.8394 58.1578C64.8147 58.7623 64.6259 59.3487 64.2934 59.8541C63.2502 61.3764 60.6546 61.9082 57.1476 61.3359H57.148ZM67.1605 53.4212C67.1605 53.7712 67.0567 54.1133 66.8622 54.4044C66.6678 54.6954 66.3914 54.9222 66.068 55.0561C65.7446 55.19 65.3888 55.2251 65.0455 55.1568C64.7023 55.0885 64.3869 54.9199 64.1395 54.6724C63.892 54.4249 63.7235 54.1096 63.6552 53.7663C63.5869 53.423 63.622 53.0672 63.756 52.7438C63.8899 52.4205 64.1168 52.1441 64.4078 51.9497C64.6989 51.7553 65.041 51.6515 65.391 51.6516C65.8602 51.6521 66.31 51.8387 66.6417 52.1705C66.9734 52.5022 67.16 52.952 67.1605 53.4212V53.4212Z" fill="#C66BD6"></path><path d="M47.8577 43.8203C46.9144 43.8203 45.9922 44.1 45.2078 44.624C44.4234 45.1481 43.812 45.893 43.451 46.7646C43.09 47.6361 42.9955 48.5951 43.1795 49.5203C43.3635 50.4456 43.8178 51.2954 44.4848 51.9625C45.1519 52.6296 46.0017 53.0838 46.9269 53.2679C47.8522 53.452 48.8112 53.3575 49.6827 52.9965C50.5543 52.6355 51.2992 52.0242 51.8233 51.2398C52.3474 50.4555 52.6272 49.5333 52.6272 48.5899C52.6258 47.3254 52.1228 46.1131 51.2287 45.2189C50.3346 44.3247 49.1222 43.8218 47.8577 43.8203V43.8203ZM47.8577 50.3594C47.5077 50.3594 47.1655 50.2557 46.8745 50.0612C46.5834 49.8668 46.3566 49.5904 46.2226 49.267C46.0887 48.9437 46.0536 48.5879 46.1219 48.2446C46.1902 47.9013 46.3587 47.5859 46.6062 47.3384C46.8537 47.0909 47.169 46.9224 47.5123 46.8541C47.8556 46.7858 48.2115 46.8209 48.5348 46.9549C48.8582 47.0888 49.1346 47.3157 49.329 47.6067C49.5234 47.8978 49.6272 48.2399 49.6271 48.5899C49.6266 49.059 49.4399 49.5088 49.1082 49.8405C48.7765 50.1722 48.3268 50.3588 47.8577 50.3594V50.3594Z" fill="#C66BD6"></path></svg>